<?xml version="1.0" encoding="UTF-8"?>
<svg id="Capa_1" data-name="Capa 1" xmlns="http://www.w3.org/2000/svg" viewBox="0 0 472.62 445.66">
  <defs>
    <style>
      .cls-1 {
        fill: #62893b;
      }

      .cls-2 {
        fill: #566338;
      }

      .cls-3 {
        fill: #507a39;
      }

      .cls-4 {
        fill: #76633e;
      }

      .cls-5 {
        fill: #337581;
      }

      .cls-6 {
        fill: #12435f;
      }

      .cls-7 {
        fill: #62a0ad;
      }

      .cls-8 {
        fill: #93b459;
      }

      .cls-9 {
        fill: #a69a67;
      }

      .cls-10 {
        fill: #759b4c;
      }

      .cls-11 {
        fill: #213f4e;
      }

      .cls-12 {
        fill: #eab54a;
      }

      .cls-13 {
        fill: #fbf8e8;
      }

      .cls-14 {
        fill: #1a412b;
      }

      .cls-15 {
        fill: #a9c7c7;
      }

      .cls-16 {
        fill: #3b6736;
      }

      .cls-17 {
        fill: #312783;
      }
    </style>
  </defs>
  <path class="cls-2" d="M247.69,445.05c-.08.37-.49.61-1.1.61l-9.94-.05c.13-.38.51-.56,1.13-.56h9.91Z"/>
  <path class="cls-2" d="M226.22,445.61l-7.04.04c-.59,0-.98-.24-1.13-.54l7.04-.08c.62,0,.99.2,1.14.57Z"/>
  <path class="cls-6" d="M341.3,11.39c-.24-.02-.56-.28-1.23.11,1.38,1.33,2.7,2.04,4.46,1.99l.5.47c-.13,2.28,3.21,4.21,4.09,6.42.74,1.88,1.67,3.84,4.2,3.88,5.42.08,10.78,2.25,13.69,7.33.62,1.08,1.2,2.43,2.87,2.39,3-.06,6.36.87,8.17,3.4.81,1.13,1.78,1.21,2.69,1.53.57.2,1.06,1.21,2.26,1.22,3.05.02,5.26,1.8,7.29,3.54-.48,1.81.67,2.86,1.66,4.31.69,1.06.32,2.99.27,4.54l-25.17.31c-1.97.02-3.49.83-5.59-.04-1.16-.48-2.81-.04-3.86-.12l1.58-3.79,25.32.12,1.24.1c.74.06,1.68.42,2.45-.36-2.29-3.3-5.66-4.81-9.89-3.79-.63-2.88-2-5.11-3.74-6.23-2.65-1.71-5.45-1.66-8.68-.44-.82-6.33-5.84-10.63-12.34-10.17-1.71.12-3.06.11-4.4.76-1.5.32-1.6-1.72-1.93-4.65.13-.37.93-.89.48-1.51-.35-.48-1.23-.4-1.69-.34-.04-.13-.02-.44.06-.56.87-1.17-.47-1.9-1.66-4.26-.12-.23-.74-.02-1.09-.26-1.6-1.1-3.26-3.24-4.91-3.68-9.27-1.47-14.41-.32-20.03,6.87-.62.79-.82,3.31-2.32,3.49-8.34-1.23-13.24-.59-16.62,7.77-5.05-1.49-9.59-.58-13.09,3.21-.69.75-2.31,1.26-1.62,2.55.14.27.15.8.18,1.14l.05.65c-.58,0-.79.64-.56.88.43.46,1.16.38,1.44.24.33-.16.41-.76.29-1.13-.05-.16,0-.42.01-.59l.98-.12c.06.26.11.95.33,1.26l26.04.07c.73,0,1.12-.28,1.11-1.02l4.09,1.05,6.92-.72c2.11-5.44,6.8-8.85,12.51-7.92,1.89.31,4.04-.75,5.77,1.15-.61.94-.56,3.03-1.89,3.96-1.09-.26-2.26-.66-2.96-1.14-.06-.34-.09-1.01-.41-1.15-.63-.27-1.24.11-1.8.16-8.18.8-8.25,7.46-8.62,7.92-1.21,1.52-4.36-1.02-8.42,2.92-.48.46-1.47.49-1.73,1.44s-.87,1.68.22,2.28l1.37.75c2.21,1.21,4.49,1.2,7.12,1.08l6.48-.3c.5-.02.9-.15,1.07-.37.14-.17.13-.64.06-.88l9.56.13c-.04.17-.14.59-.03.98l4.56.48c-.3.57-.98.82-.96,1.05s.96.17.71,1.18c-2.07-1.3-3.8-.37-5.75-.35l-26.72.22c-1.03,0-1.36-.62-1.57-1.26-.22-.7.07-1.49,1.49-1.55l.13-4.97-.02-1.61c0-.22.06-.88-.18-1.22h-27.46c-.24-.02-.35.33-.3.41l6.98.14c.56.01.98.44,1.16.66l-12.8.06c.08-.26.11-.76-.02-.95-.16-.22-.61-.31-1.06-.34l-3.51-.18,3.55-6.14,3.23-3.71c.56-.64,1.89-1.54,2.67-1.99,5.9-3.38,12.69-.18,10.29-4.03,2.16,0,2.52-2.33,4.06-3.06l4.33-2.06c2.22-1.06,4.67-.45,6.72-.65.14-.01.39-.06.54,0,1.31.06,1.64-1.1,2.44-1.93,2.03-2.1,3.96-4.11,6.49-5.71.99-.62,2.57-.76,2.06-2.3,5.3-1.99,11.54-2.15,16.33.96ZM314.32,20.61l-.16.51c-.05,0,.69-.03.16-.51ZM328.81,37.54l-.29.29.29.29.29-.29-.29-.29Z"/>
  <path class="cls-15" d="M384.48,49.01l-25.32-.12-1.58,3.79c-.42-.03-.87-.09-1.12.3-.13.19-.06.67,0,.83l-6.13-1.29c1.06-.58,2.23-1.22,2.48-2.12.43-1.51.41-2.97-.94-3.94-2.44,2.6-5.09,2.83-7.96,2.8l-9.56-.13-5.84.16c-2.22.06-4.26-.41-6.39-.24.18-2.48,4.38-2.49,8.66-2.23-.23-3.01,1.38-5.7,3.33-6.97,2.52-1.64,5.69-1.04,8.41-.45,1.59-3.42,4.14-6.42,7.27-7.28,3.95-1.09,7.73-.56,10.39,2.18,2.33,2.4,3.65,5.03,3.26,8.51,2.53-2.1,5.24-2.23,8.37-1.28,2.12.64,3.88,2.87,4.55,5.66,3.79,0,7.51-.25,8.13,1.82Z"/>
  <path class="cls-12" d="M162.16,77.88l-8.02,6.21c-1.73,1.34-3.32,1.86-4.99.29l-9.9-9.29c-2.64-2.48-5.14-4.91-8.14-7-.98-10.67,1.51-20.18,8.71-28.01,10.2-11.09,26.59-14.21,39.75-7.09,7.95,4.3,14.05,11.11,16.11,20.32-6.03,1.49-12.69,2.83-16.32,7.06l-12.47,13.77c-1.28,1.41-2.94,2.36-4.73,3.74Z"/>
  <path class="cls-12" d="M130.51,41.07c-4.18-4.82-7.71-9.79-11.96-14.41l-2.41-4.49c2.46-.64,4,.99,5.82,2.05l15.93,9.24c-.43,1.97-1.84,2.77-3.04,4.06-1.07,1.15-2.27,3.13-4.34,3.55Z"/>
  <path class="cls-12" d="M127.77,47.76c-.11,3.08-1.26,6.12-2.07,9.2-.59.94-2.45-.11-3.25-.53-6.34-3.35-12.43-6.17-18.61-10.22,4.34-1.06,8.25.13,12.5.64,3.68.44,7.16-.25,11.43.92Z"/>
  <path class="cls-12" d="M197.59,40.76c-1.35.6-2.21-1.87-2.82-2.56-1.48-1.68-3.44-2.68-4.04-5.07l21.4-11.53-7.12,9.81-7.42,9.34Z"/>
  <path class="cls-12" d="M168.95,23.42l-9.58.15c1.36-7.99,2.44-15.46,4.75-23.57,2.2,7.76,3.59,15.06,4.83,23.42Z"/>
  <path class="cls-12" d="M185.07,28.95l-8.66-3.24c-.62-.7.36-2.23.8-2.83l8.94-12.02c.95-1.28,1.68-2.81,3.68-3.15l-4.77,21.23Z"/>
  <path class="cls-12" d="M152.04,25.12l-8.33,4.29c-2.15-7.66-3.95-14.85-5.47-22.96,2.74,2.1,3.99,4.81,6,7.26,2.74,3.61,5.46,6.92,7.8,11.41Z"/>
  <path class="cls-11" d="M315.77,45.04l-.13,4.97c-1.42.06-1.71.85-1.49,1.55.2.64.54,1.27,1.57,1.26l26.72-.22c1.95-.02,3.69-.94,5.75.35.25-1.01-.69-.94-.71-1.18s.66-.49.96-1.05l-4.56-.48c-.11-.39-.01-.81.03-.98,2.88.04,5.53-.2,7.96-2.8,1.36.97,1.37,2.43.94,3.94-.26.9-1.42,1.54-2.48,2.12-.53.29-1.21,1.11-2.2,1.11h-35.79c0-3.24,1-6.64,3.42-8.59Z"/>
  <path class="cls-5" d="M356.46,53.8c-.06-.16-.13-.64,0-.83.25-.38.71-.33,1.12-.3,1.05.08,2.71-.36,3.86.12,2.1.86,3.62.06,5.59.04l25.17-.31c.05-1.56.43-3.49-.27-4.54-.98-1.45-2.14-2.5-1.66-4.31,2.73,2.34,3.93,6.2,3.86,10.02l-37.68.12Z"/>
  <path class="cls-11" d="M380.74,38.9c-.9-.31-1.88-.4-2.69-1.53-1.81-2.52-5.17-3.46-8.17-3.4-1.67.03-2.25-1.31-2.87-2.39-2.91-5.07-8.27-7.24-13.69-7.33-2.53-.04-3.45-1.99-4.2-3.88-.87-2.22-4.22-4.14-4.09-6.42,3.01,1.79,4.76,4.98,6.33,8.35.9,1.94,12.17-1.19,17.86,10.01l5.38,1.11c2.79.57,4.57,3.32,6.14,5.47Z"/>
  <path class="cls-11" d="M283.16,43.47c-1.71,0-3.44.56-5.32-.01,1.18-9.94,9.46-16.63,19.31-16.32,4.66-5.94,9.16-8.74,17.02-7.24,2.72-4.41,6.23-7.75,10.79-9.46.51,1.54-1.07,1.68-2.06,2.3-2.53,1.6-4.46,3.61-6.49,5.71-.8.82-1.13,1.99-2.44,1.93l.34.25c.53.48-.21.5-.16.51-.39-.35-.53-.6-.72-.77-2.06.21-4.5-.4-6.72.65l-4.33,2.06c-1.54.73-1.91,3.06-4.06,3.06,2.4,3.85-4.39.66-10.29,4.03-.79.45-2.12,1.34-2.67,1.99l-3.23,3.71-3.55,6.14,3.51.18c.45.02.9.12,1.06.34.14.18.1.69.02.95ZM281.3,42.91c-1.31-.79-1.68.31-1.4.6,1.11.18,1.49-.51,1.4-.6Z"/>
  <path class="cls-11" d="M308.1,49.1c1.39.48,1.37,2.17,1.05,3.07-.48,1.34-1.67,1.73-3.33,1.67-1.45-.05-2.55-.27-2.76-1.54s-.03-2.73,1.48-3.22c.96-.31,2.35-.4,3.56.02Z"/>
  <path class="cls-11" d="M315.75,43.42l-4.67-.07c.1-.69-.68-.69-.58,0l-14.54.06c-.18-.22-.61-.64-1.16-.66l-6.98-.14c-.05-.07.06-.42.3-.42h27.46c.23.35.17,1.01.18,1.23Z"/>
  <path class="cls-11" d="M341.3,11.39l3.23,2.1c-1.76.05-3.09-.66-4.46-1.99.66-.39.99-.13,1.23-.11Z"/>
  <path class="cls-6" d="M311.08,43.35h-.58c-.1-.69.68-.69.58,0Z"/>
  <path class="cls-15" d="M346.59,24.34c-.06-.19.31-.32.59-.12.33,2.94.43,4.97,1.93,4.65-1.84.9-3.7,2.12-5.26,3.58-1.73-1.9-3.87-.84-5.77-1.15-5.71-.93-10.4,2.48-12.51,7.92l-6.92.72-4.09-1.05-27.49-.31c-.5-2.17,8.56-3.57,14.38-3.69,1.41-2.54,3.49-5.64,6.28-6.42,3.5-.98,6.46-.92,10.01,1.27,1.39-4.74,4.19-8.26,7.55-9.93,5.97-2.97,13.59-2.31,17.8,3.76.82,1.19,2.97,2.23,3.5.78Z"/>
  <path class="cls-13" d="M388.17,48.74c-1.02-.3-2.04-.34-2.45.36l-1.24-.1c-.62-2.07-4.34-1.83-8.13-1.82-.67-2.79-2.43-5.02-4.55-5.66-3.13-.95-5.84-.82-8.37,1.28.39-3.48-.92-6.1-3.26-8.51-2.66-2.74-6.44-3.27-10.39-2.18-3.14.86-5.68,3.86-7.27,7.28-2.72-.59-5.89-1.19-8.41.45-1.95,1.26-3.55,3.95-3.33,6.97-4.27-.25-8.48-.25-8.66,2.23-.83.07-1.7-.01-2.51.55l-1.37-.75c2.92-5.21,5.02-5.59,10.81-4.82-.08-5.83,4.76-9.54,9.96-8.75.7.48,1.87.87,2.96,1.14,1.33-.92,1.27-3.02,1.89-3.96,1.56-1.46,3.42-2.68,5.26-3.58,1.34-.66,2.69-.64,4.4-.76,6.49-.46,11.51,3.85,12.34,10.17,3.23-1.22,6.03-1.26,8.68.44,1.74,1.12,3.11,3.35,3.74,6.23,4.23-1.02,7.6.49,9.89,3.79Z"/>
  <path class="cls-13" d="M346.04,21.81c-.09.11-.1.43-.06.56l.62,1.97c-.53,1.46-2.68.41-3.5-.78-4.21-6.07-11.83-6.73-17.8-3.76-3.36,1.67-6.16,5.2-7.55,9.93-3.55-2.18-6.51-2.25-10.01-1.27-2.78.78-4.87,3.88-6.28,6.42-5.82.12-14.88,1.52-14.38,3.69l-.98.12-1.22-.05c-.02-.34-.04-.87-.18-1.14,5.23-4.64,8.2-6.58,15.89-4.62.57-3.88,3.16-6.55,6.08-7.78,3.49-1.47,6.85-.85,10.39,1.06,1.74-6.47,7.01-10.97,13.05-11.9,6.55-1.02,12.26,2.33,15.93,7.55Z"/>
  <path class="cls-11" d="M346.04,21.81c-3.67-5.22-9.38-8.57-15.93-7.55-6.04.94-11.31,5.44-13.05,11.9-3.54-1.91-6.9-2.53-10.39-1.06-2.92,1.23-5.51,3.9-6.08,7.78-7.69-1.97-10.66-.03-15.89,4.62-.68-1.29.93-1.8,1.62-2.55,3.51-3.79,8.04-4.7,13.09-3.21,3.38-8.36,8.28-9,16.62-7.77,1.5-.18,1.7-2.7,2.32-3.49,5.62-7.19,10.76-8.33,20.03-6.87,1.65.44,3.31,2.58,4.91,3.68.35.24.98.03,1.09.26,1.19,2.36,2.52,3.09,1.66,4.26Z"/>
  <path class="cls-11" d="M314.56,38.88c0,.74-.39,1.03-1.11,1.02l-26.04-.07c-.23-.31-.27-1-.33-1.26l27.49.31Z"/>
  <path class="cls-11" d="M339,35.27c-5.2-.78-10.04,2.92-9.96,8.75-5.79-.77-7.89-.39-10.81,4.82-1.09-.6-.47-1.37-.22-2.28s1.25-.98,1.73-1.44c4.06-3.94,7.22-1.4,8.42-2.92.37-.46.43-7.12,8.62-7.92.57-.06,1.17-.43,1.8-.16.33.14.36.82.41,1.15Z"/>
  <path class="cls-11" d="M334.34,49.12c.07.24.08.71-.06.88-.17.22-.58.35-1.07.37l-6.48.3c-2.64.12-4.92.13-7.12-1.08.81-.56,1.68-.48,2.51-.55,2.14-.18,4.17.3,6.39.24l5.84-.16Z"/>
  <path class="cls-11" d="M347.18,24.22c-.27-.2-.65-.07-.59.12l-.62-1.97c.45-.06,1.34-.14,1.69.34.45.62-.35,1.14-.48,1.51Z"/>
  <path class="cls-11" d="M286.08,39.29c.12.37.04.97-.29,1.13-.27.13-1,.22-1.44-.24-.23-.24-.02-.89.56-.88h1.16Z"/>
  <path class="cls-15" d="M388.17,48.74c-.77.78-1.71.42-2.45.36.41-.7,1.44-.66,2.45-.36Z"/>
  <path class="cls-5" d="M286.09,38.7c-.02.17-.06.43-.01.59h-1.16s-.05-.65-.05-.65l1.22.05Z"/>
  <rect class="cls-11" x="328.6" y="37.63" width=".41" height=".41" transform="translate(69.55 243.58) rotate(-45)"/>
  <path class="cls-6" d="M281.3,42.91c.09.09-.29.79-1.4.6-.28-.3.09-1.39,1.4-.6Z"/>
  <path class="cls-2" d="M363.45,285.79c.29.24.56.99.26,1.23-.36.29-.79.46-1.64.46l-257.94.05c-.04-.23-.19-.63.26-1.18h254.78c1.91,0,2.88-.05,4.28-.56Z"/>
  <path class="cls-1" d="M393.25,279.33l.52.59c-3.88,6.97-7.47,14.1-9.87,21.7.41-1.11-.77-1.88-1.08-.27l-3.25-8.6c.73,0,.97-.8.66-1.44-.18-.38-.77-.44-1.19-.28l-1.03-3.45c.9-.2,1.1-1.24,1.34-2.6l1.03,4.68c.22-4.46,1.09-7.35-.92-6.82-.26.32-.36,1.47-.96,1.76l-.99-8.61.45-5.34c1.29.35,2.72,1.48,2.85,2.06.12.52-.33.84-.78.91-.17.02-.35.16-.4.36-.3.46-.08,1.38.24,1.3l1.75-.44c2.24.81,4.7,2.02,7.45,1.59,1.11-.17,1.92,1.9,1.64,2.99,1.22-.54.99-1.62,1.5-2.4.1,1.22.24,1.96,1.04,2.34ZM379.83,273.22c-.23-.71-1.09-.25-.53.34l.53-.34Z"/>
  <path class="cls-14" d="M398.22,271.41c-.62,3.1-2.87,5.67-4.45,8.51l-.52-.59c1.19-11.01-4.03-21.68-2.8-32.04,1.07,4.76,2.63,8.73,4.1,13.13l3.67,10.98Z"/>
  <path class="cls-14" d="M413.98,250.43c.06.49-.03,1.12-.45,1.71l-4.16,5.81c-.37-.07-.76-.68-.64-1.26,1.15-5.86.73-11.5.23-17.41l-.94-11.07c1.59.24,1.1,1.43,1.34,2.26,2.01,6.8,3.85,13.21,4.62,19.95Z"/>
  <path class="cls-14" d="M433.74,225.74l-4.23,6.28-1.11-20.84,4.2,13.52c.21.68.7,1.01,1.15,1.04Z"/>
  <path class="cls-15" d="M447.65,200.44l-3.3,9.24c-.13-.5-.3-.95-.79-1.19,1.7-2.93,3.04-6.04,3.75-9.37.72.46.41,1.07.34,1.32Z"/>
  <path class="cls-2" d="M100.61,288.09c-.26.6-.99.74-1.76.65-.06-.31-.09-.99.35-1.21.47-.23,1.2.09,1.42.56Z"/>
  <path class="cls-2" d="M103.54,287.55c-.55.31-1.18.45-1.81.49-.09-.35.03-.97.39-1.1.58-.21,1.2.14,1.43.61Z"/>
  <polygon class="cls-7" points="259.36 229.93 259.67 229.87 259.92 230.25 259.63 230.54 259.34 230.25 259.36 229.93"/>
  <path class="cls-7" d="M252.82,221.69c-.76.4-1.88,2.31-.58,2.69l6.33,1.84c-.02,1.1-.06,2.61.79,3.71-.28.13-.68.09-.96.08-.3-.01-1.14.06-1.23.35-.23.69,6.35,7.16.45,14.72-.61.78-1.05,1.44-1.03,2.33-.51.33-1.02,1.24-1.99,1.64l-6.17,2.54-31.54,11.51c-11.61,4.24-22.69,8.44-35.19,8.94,1.84-1.42,3.73-2.3,5.65-2.97,6.91-2.4,13.22-5.22,19.11-9.33-1.81-.57-3.1.77-4.56,1.05l-12.92,2.41c-.74.14-1.55-.17-1.84-.88,2.23-.99,4.57-1.43,6.73-3.13-2.29-.1-4.24.37-6,.68l-2.49-1.92c-3.38-.98-6.58.58-9.9.83-11.19.83-21.91,2.47-32.83,5.07-2.7.64-5.15.97-7.92,2.56-.88-1.59-.54-3.08-.35-4.6,9.72-2.94,19.64-4.91,29.94-6.5l13.62-2.11c8.51-1.32,16.68-2.86,25-5.19,9.07-2.55,21.24-8.76,16.04-16.06-8.05-11.3-43.85-13.06-44.9-24.42s28.66-14.61,39.75-17.19l15.52-3.62c2.74-.64,4.93-1.82,6.88-3.85-.17,1.15.67,3.98,1.8,4.28,2.35.61,7.42-3.48,7.76-5.87.28-1.95-3.9-5.05-1.36-4.57l1.03.19c.66-1.43,2.36-2.08,4.07-2.02,2.6.09,6.39,2.01,7.69,4.86,1.23,2.68-1.4,5.85-3.91,7.08-9.21,4.51-18.83,7.16-28.74,10.09-6.37,1.88-17.02,4.74-16.21,9.4.73,4.2,9.12,6.6,15.01,8.04l15.76,3.86c4.66,1.14,9.21,2.06,13.67,3.52ZM232.8,189.24l-11.11,2.59-18.47,5.27-3.52,1.72c-2.88,1.41-4.79,4.37-3.14,7.61,3.78-11.9,25.55-8.96,36.25-17.2ZM194.73,214.71l-4.94-3c-2.62-1.66-4.41-5.24-2.64-8.02l4.78-4.47c-4.91,1.08-10.23,5.2-8.4,8.97s6.8,5.67,11.2,6.52ZM242.1,245.56c4.09-1.3,7.6-4.52,7.68-8.63.09-4.71-7.65-10.37-12.54-12.28-6.75-2.65-13.59-4.49-20.89-5.41,2.59,1.77,5.34,2.28,8.12,3.14,6.72,2.08,12.98,4.96,17.99,9.87,2.35,2.3,3.57,5.7,2.08,8.58l-2.44,4.74ZM213.47,251.24c9.57-1.02,19.56-7.02,15.51-15.12-.49,8.22-9.02,11.07-15.51,15.12ZM212.05,251.75h-.38s.38.02.38.02h.77s-.38-.02-.38-.02h-.39ZM194.52,258.44l-.29.29.29.29.29-.29-.29-.29Z"/>
  <path class="cls-5" d="M232.01,279.48c-3.45-7.14,1.55-14.22,7.34-20.66-9.45,2.8-14.64,11.39-12.5,20.73l-87.32-.08c.02-.49.12-1.03.59-1.32l7.5-4.76c15.2-8.09,30.83-7.24,39.52-11.09.29.71,1.1,1.02,1.84.88l12.92-2.41c1.47-.27,2.75-1.62,4.56-1.05-5.89,4.11-12.2,6.93-19.11,9.33-1.93.67-3.81,1.55-5.65,2.97,12.5-.5,23.58-4.7,35.19-8.94l31.54-11.51,6.17-2.54c.97-.4,1.48-1.3,1.99-1.64,1.21-.29,2.12-1.54,3.22-2.43,3.77-3.08,4.22-8.13.84-11.74l-2.25-3.23c.28,0,.68.05.96-.08l-.02.31.29.29.29-.29-.24-.38-.31.07c-.85-1.1-.81-2.61-.79-3.71l-6.33-1.84c-1.31-.38-.18-2.29.58-2.69,9.06,2.96,21.59,8.66,20.85,18.3-.28,3.65-1.64,7.15-4.87,9.35l-11.44,7.79c-4.06,2.77-9.13,4.44-12.26,8.57-3.31,4.36-1.32,10,3.03,13.57l-16.13.22Z"/>
  <path class="cls-3" d="M462.34,245.51c-6.32,33.89-31.04,57.63-64.86,63.98.11-2.61.86-4.16,1.62-5.99l4.72-11.43c1.14.16,1.68-.54,2.11-1.57,1.24-2.94,3.69-4.71,6.22-6.7,3.13-2.47,8.52-3.01,10.54-5.94l10.65-3.5c3.98-1.31,7.89-3.24,10.18-6.53.65-.94,1.3-1.36,1.79-2.56,1.83-4.47,6.75-6.71,7.92-9.48.78-1.85,1.89-4.4,3.84-5.28.5-.15,1.67.58,2.14-.03,1.8-2.32,1.48-4.89,3.13-4.97Z"/>
  <path class="cls-1" d="M462.36,244.51l-.02,1c-1.65.08-1.33,2.65-3.13,4.97-.48.61-1.64-.12-2.14.03-1.95.88-3.06,3.43-3.84,5.28-1.17,2.76-6.08,5.01-7.92,9.48-.49,1.2-1.14,1.62-1.79,2.56-3.24,1.45-6.7,2.54-10.37,3.34l-20.07,4.4,5.92-9.7c.36.43.63.44.83.38.14-.05.74-.47.75-.71.05-1.71,1.99-2.84,2.69-3.99l2.96-4.81c1-1.63,2.35-2.41,4.72-1.79-.44-.65-.86-.68-1.25-.89l7.56-2.75c6.26-2.28,13.2-5.32,17.89-9.64-.29-.49-.78-1.13-.81-1.49-.03-.34.54-.99.69-1.36l-1.67-3.57c2.27-1.2,4.55-2.62,6.72-2.87.53,1.06,1.33,2.09,2.7,2.34l-.76,6.76c-.13,1.16-.83,2.3.33,3.01Z"/>
  <path class="cls-5" d="M187.88,259.85l-15.2,2.71c-15.16,2.71-25.02,4.8-35.43,16.9l-27.17.16c-2.7.02-4.98,1.36-8.23.78,8.82-9.26,20.97-15.12,32.53-18.62-.18,1.52-.53,3.01.35,4.6,2.77-1.58,5.22-1.91,7.92-2.56,10.91-2.6,21.64-4.24,32.83-5.07,3.32-.25,6.52-1.81,9.9-.83l2.49,1.92Z"/>
  <path class="cls-8" d="M455.15,171.36c-.77-.05-1.45-.68-2.2-1.41-2.39,7.62-5.16,14.24-10.33,20.16-6.3,7.21-13.25,13.77-20.79,19.74l-13.68,10.83c-11.12,8.8-19.68,19.51-25.54,32.63-2.49,5.58-4.86,11.34-4.65,17.33l-.45,5.34.99,8.61c.08.69-.09,1.33-.55,1.82-3.74-19.92.67-43.33,15.37-57.92l10.77-10.69,12.06-9.52c15.45-12.19,28.7-21.72,37.1-40.93,1.13,1.62,1.45,2.82,1.9,4Z"/>
  <path class="cls-15" d="M249.54,174.85c-1.7-.06-3.41.59-4.07,2.02l-1.03-.19c-2.54-.48,1.65,2.62,1.36,4.57-.35,2.39-5.41,6.48-7.76,5.87-1.13-.29-1.98-3.13-1.8-4.28.29-1.94.75-4.78-1.8-5.94l-7.97-3.64c-4.41-2.02-12.83-4.35-12.61-8.09.27-4.56,15.21-8.47,21.78-10.01l-7.52,5.8c-1.03.79-1.26,2.31-1.09,3.36.58,3.51,9.11,5.45,14.48,7.38l8.03,3.16ZM241.35,177.99c.32.46.78,0,.32-.32l-.32.32ZM242.21,178.22l-.09.57c.37-.01.46-.43.09-.57ZM241.29,183.93c1.71-1.09,2.87-3.02.9-4.96-.06,2.1.12,2.91-.9,4.96Z"/>
  <path class="cls-3" d="M395.05,321.86c-.47-1.6.09-2.97.95-4.3,6.89-.52,13.26-2.13,19.79-4.45,7.75-3.15,14.39-7.49,21.68-12.43l-9.27,21.13-33.16.05Z"/>
  <path class="cls-10" d="M328.2,177.66c7.33,10.18,9.74,21.39.24,30.93l-1.28-17.67c-1.75,2.86-.97,5.84-1.11,8.73l-.54,10.59c-1.88-1.41-3.37-2.97-4.5-4.93.27.27,1.22.07,1.24-.26-2.44-5.96-1.55-12.09.61-18.04l3.36-9.22c.66.08,1.74.31,1.98-.13Z"/>
  <path class="cls-8" d="M283.21,189.12c-2.36-.19-4.76.31-7.26,1.05l-17.45,5.21-14.35,4.83-14.31,6.11c-.86.37-1.37.64-1.27,1.45-.34.07-.79.06-1.17,0-.2-.16-.45-.32-.71-.38l-5.95-1.42c3.34-2.36,6.95-3,10.73-4.46,16.82-6.5,33.89-11.35,51.49-14.89l.24,2.51Z"/>
  <path class="cls-15" d="M187.15,262.3c-8.7,3.85-24.33,3-39.52,11.09l-7.5,4.76c-.46.29-.57.83-.59,1.32h-2.28c10.41-12.11,20.27-14.21,35.43-16.91l15.2-2.71c1.76-.31,3.71-.78,6-.68-2.16,1.7-4.5,2.14-6.73,3.13Z"/>
  <path class="cls-4" d="M391.9,179.33l2.34,2.58-10.48,9.49-8.63-8.06c-.99-.92-1.07-2.43,0-3.32l8.12-6.77c3.83,2.25,5.61,6.68,8.66,6.07ZM383.5,185.65c1.4.19,3.86-2.04,3.67-3.27-.3-1.97-2.42-3.41-3.91-4.37l-3.65,4.44c1.05,1,2.06,2.96,3.88,3.2Z"/>
  <path class="cls-8" d="M287.35,196.37c-10.37,3.21-20.59,6.66-30.69,11.07l-10.12,4.68c-1.68-.49-3.82.34-5.61-1.66,14.47-6.58,28.95-11.93,44.07-15.83,1.39-.36,1.79,1.27,2.35,1.74Z"/>
  <path class="cls-1" d="M283.21,189.12c.07.75-.2,1.58-1.27,1.85-16.24,4.06-31.85,9.3-47.11,16.28-2.26,1.03-3.99,1.93-6.26.52-.1-.81.41-1.09,1.27-1.45l14.31-6.11,14.35-4.83,17.45-5.21c2.5-.75,4.9-1.24,7.26-1.05Z"/>
  <path class="cls-1" d="M246.54,212.12l10.12-4.68c10.1-4.41,20.32-7.86,30.69-11.07.65.54,1.57.58,1.77,1.83l-25.26,9.49-12.27,5.51c-1.56.7-3.75-.7-5.05-1.08Z"/>
  <path class="cls-15" d="M232.01,279.48l-1.04.02-1.34.08-2.79-.03c-2.14-9.34,3.05-17.93,12.5-20.73-5.78,6.44-10.79,13.52-7.34,20.66Z"/>
  <path class="cls-8" d="M328.2,177.66c-.25.45-1.33.22-1.98.13l-3.36,9.22c-2.16,5.94-3.05,12.08-.61,18.04-.03.33-.97.53-1.24.26-3.97-6.87-3.88-14.8.18-21.63l4.96-8.35c.85.78,1.45,1.49,2.06,2.33Z"/>
  <path class="cls-10" d="M455.15,171.36c5.37,14.05,8.41,28.74,9.61,44.06.61,7.75-.07,15.09-1.34,22.65l-1.05,6.44c-1.17-.71-.46-1.85-.33-3.01l.76-6.76c-1.37-.24-2.17-1.28-2.7-2.34-2.17.25-4.45,1.67-6.72,2.87l1.67,3.57c-.15.37-.73,1.02-.69,1.36.04.37.52,1,.81,1.49-4.7,4.32-11.64,7.36-17.89,9.64l-7.56,2.75c.39.2.81.24,1.25.89-2.38-.62-3.72.16-4.72,1.79l-2.96,4.81c-.7,1.15-2.65,2.28-2.69,3.99,0,.24-.6.67-.75.71-.21.07-.47.05-.83-.38,2.32-3.65,4.41-8.22,8-11.2,6.05-5.02,19.89-5.9,26.68-13.76l-10.27,3.38-12.31,2.56,10.54-20.1,9.7-5.89c2.01-1.22,3.71-2.58,4.55-4.91-3.82,2.31-7.37,4.07-12.01,5.37,2.52-8.01,4.79-15.49,4.93-23.41-.72.97-.92,1.86-1.15,2.53.07-.25.38-.86-.34-1.32-.71,3.33-2.06,6.44-3.75,9.37l-8.49,14.65-1.34,2.61c-.44-.02-.93-.35-1.15-1.04l-4.2-13.52,1.11,20.84-12.4,15.62c-.94,1.18-1.66,2.62-3.12,2.79-.77-6.74-2.62-13.15-4.62-19.95-.25-.84.25-2.03-1.34-2.26l.94,11.07c.5,5.91.93,11.55-.23,17.41-.12.59.27,1.19.64,1.26l-8.73,11.56c-.72.95-1.26,1.81-2.41,1.9l-3.67-10.98c-1.47-4.39-3.03-8.36-4.1-13.13-1.23,10.35,3.99,21.02,2.8,32.04-.8-.38-.94-1.12-1.04-2.34-.51.78-.28,1.87-1.5,2.4.28-1.09-.53-3.16-1.64-2.99-2.75.43-5.21-.78-7.45-1.59l-1.75.44c-.32.08-.54-.84-.24-1.3-.09-.16-.24-.33-.33-.39-.56-.59.3-1.05.53-.34.04.12.12.27.2.37.45-.06.9-.39.78-.91-.14-.57-1.56-1.71-2.85-2.06-.21-5.98,2.16-11.75,4.65-17.33,5.86-13.12,14.42-23.82,25.54-32.63l13.68-10.83c7.54-5.97,14.49-12.53,20.79-19.74,5.17-5.92,7.94-12.54,10.33-20.16.75.73,1.43,1.37,2.2,1.41ZM456.7,215.42l-.29.29.29.29.29-.29-.29-.29Z"/>
  <path class="cls-2" d="M78.04,402.63c-.51-.02-1.67.09-1.99-.3-.69-1.85.22-3.66.21-5.5l-.04-5.25v-2.91s0-54.64,0-54.64v-4.08c0-.34-.23-.58-.57-.58l-37.6.14c-.24.04-.83-.11-.68-.72l39.4.06.05,71.89c0,.84.97,1.54,1.21,1.9Z"/>
  <path class="cls-1" d="M422.69,277.87c-2.02,2.92-7.4,3.47-10.54,5.94-2.53,2-4.98,3.77-6.22,6.7-.43,1.03-.97,1.73-2.11,1.57.39-.95.6-2.05,1.41-2.81.31-.14.55-.38.67-.71,1.79-4.86,10.88-8.75,16.78-10.69Z"/>
  <path class="cls-10" d="M378.01,287.56l-.07-1.15c.46-.5.63-1.14.55-1.82.6-.29.7-1.44.96-1.76,2.01-.53,1.14,2.36.92,6.82l-1.03-4.68c-.24,1.36-.45,2.4-1.34,2.6Z"/>
  <path class="cls-15" d="M387.85,347.98c0-2.54-.45-5.17.37-7.65l.17,7.03c-.1.42-.36.59-.54.62Z"/>
  <path class="cls-15" d="M387.99,363.15c-.41-1.44-1.31-3.08-.11-4.16,1.02,1.3.16,2.8.11,4.16Z"/>
  <path class="cls-15" d="M387.82,370.09c-.37-.36-.69-.86-.62-1.41.04-.35.43-.74.6-.99.56.12.57.62.61.94.08.6-.02,1.23-.6,1.46Z"/>
  <path class="cls-10" d="M379.57,292.75l-.53-1.73c.42-.16,1.01-.09,1.19.28.31.64.06,1.45-.66,1.44Z"/>
  <path class="cls-9" d="M361.55,240.44c-.85,2.26-2.69,4.05-4.84,5.31,0,.65.05,1.38-.26,1.75-.35-.39-.89-.7-1.41-.66-.67.05-.87,1.02-1.25,1.35l-9.88,8.6c-6.37,3.08-12.37,6.43-19.47,7.37l-9.74-.87-10.03-1.88c-6.83-.11-12.88,3.52-16.51,8.97l-3.06,4.6c-.96,1.44-2.5,2.72-2.48,4.44l-15.59-.12c-.22,0-.19-1.06-.11-1.08l6.22-9.22c.48.38,1.54,0,2.06-.58l8.33-9.6c6.33-7.3,14.31-13.93,24.15-12.8l8.01.92c4.39.5,8.42.76,12.89.71h1.17c.37-.02.64-.64.63-.79,1.79-.15,3.85-.13,5.57.37.42,2.03-4.42,4.35-7.95,4.46l-10.55.13c-2.72.08-5.5,1.45-6.99,4.17,1.13.5,2.08.35,2.9.16.17,1.35,1.21,1.04,2.35,1.15,14.05,1.38,21.72,2.32,32.02-7.53l9.82-9.39c.62-.6,1.66-1.49,2.46-1.19.51.19.94.88,1.55,1.26Z"/>
  <path class="cls-4" d="M356.44,247.5l-5.01,5.95c-1.7,2.02-3.3,3.97-5.62,5.52-5.63,3.76-11.52,7.52-18.11,9.62-3.59,1.14-7.66-.25-11.4-.3-10.63-.14-17.72-4.11-24,7.42-.71,1.31-1.45,3.12-2.78,3.93l-6.92-.21c-.02-1.72,1.52-3,2.48-4.44l3.06-4.6c3.62-5.45,9.68-9.07,16.51-8.97l10.03,1.88,9.74.87c7.1-.93,13.1-4.29,19.47-7.37l9.88-8.6c.38-.33.59-1.3,1.25-1.35.52-.04,1.06.27,1.41.66Z"/>
  <path class="cls-12" d="M330.36,246.86c.01.15-.26.77-.63.77h-1.17c-4.48.07-8.51-.19-12.89-.69l-8.01-.92c-9.84-1.13-17.82,5.5-24.15,12.8l-8.33,9.6c-.51.59-1.57.96-2.06.58l6.44-9.56c1.1-1.64,1.9-3.58,3.59-4.39,1.97-.94,2.7-3.44,4.58-4.83l5.31-3.9c3.83-2.81,12.65-3.75,18.41-2.62l5.35,1.05c3.4.67,6.45.79,10,1.08,1.21.1,2.26,1.14,3.55,1.03Z"/>
  <path class="cls-15" d="M361.55,240.44c-.61-.39-1.04-1.07-1.55-1.26-.8-.3-1.84.6-2.46,1.19l-9.82,9.39c-10.3,9.85-17.97,8.91-32.02,7.53-1.14-.11-2.19.2-2.35-1.15l5.29-.04c.33.7,1.07.62,1.74.6l9.1-.29c5.85-1.01,11.01-3.87,15.65-7.55l10.82-10.63c1.36-1.34,3.77-2.1,5.34-.97,1.19.86.57,2.34.26,3.18Z"/>
  <path class="cls-15" d="M335.94,247.23c-1.72-.5-3.78-.52-5.57-.37-1.29.11-2.35-.93-3.55-1.03-3.54-.29-6.6-.41-10-1.08l-5.35-1.05c-5.76-1.13-14.58-.19-18.41,2.62l-5.31,3.9c-1.88,1.38-2.61,3.88-4.58,4.83,4.48-7.89,12.98-13.64,22.52-13.17l11.99,1.9c10.79,1.71,17.15-1.95,18.27,3.44Z"/>
  <path class="cls-9" d="M341.39,246.4c-.97-.88-1.53-1.75-1.99-3.2l9.21-8.16c1.48-1.31,3.86-1.48,5.13.04l-8.84,8.94-3.51,2.39Z"/>
  <path class="cls-2" d="M282.61,279.43l6.92.21-22.64.38c-.66.01-.61-.66-.64-.9-.09-.74.4-.68.65-.9-.08.02-.11,1.08.11,1.08l15.59.12Z"/>
  <path class="cls-2" d="M327.99,251.69l-10.55.13,10.55-.13Z"/>
  <path class="cls-9" d="M320.38,256.71c-.67.02-1.41.1-1.74-.6.65,0,1.4-.1,1.74.6Z"/>
  <path class="cls-5" d="M230.98,279.51c-.45.52-.97.08-1.34.08l1.34-.08Z"/>
  <path class="cls-3" d="M405.24,289.27l.67-.71c-.12.33-.36.57-.67.71Z"/>
  <path class="cls-1" d="M227.4,207.76c-.26-.05-.52-.22-.71-.38.26.06.51.22.71.38Z"/>
  <path class="cls-15" d="M387.86,357.87l-.03-.62c.63-.09.71.63.03.62Z"/>
  <rect class="cls-14" x="456.49" y="215.51" width=".41" height=".41" transform="translate(-18.77 386.12) rotate(-45)"/>
  <path class="cls-15" d="M242.1,245.56l2.44-4.74c1.48-2.88.27-6.27-2.08-8.58-5.01-4.91-11.27-7.79-17.99-9.87-2.78-.86-5.53-1.37-8.12-3.14,7.3.91,14.14,2.76,20.89,5.41,4.89,1.92,12.63,7.57,12.54,12.28-.07,4.11-3.59,7.33-7.68,8.63Z"/>
  <path class="cls-15" d="M232.8,189.24c-10.7,8.23-32.47,5.29-36.25,17.2-1.65-3.24.26-6.21,3.14-7.61l3.52-1.72,18.47-5.27,11.11-2.59Z"/>
  <path class="cls-15" d="M213.47,251.24c6.49-4.05,15.02-6.9,15.51-15.12,4.05,8.1-5.94,14.1-15.51,15.12Z"/>
  <path class="cls-15" d="M194.73,214.71c-4.41-.85-9.41-2.83-11.2-6.52s3.49-7.89,8.4-8.97l-4.78,4.47c-1.78,2.78.02,6.36,2.64,8.02l4.94,3Z"/>
  <path class="cls-15" d="M258.4,230.01l2.25,3.23c3.39,3.62,2.93,8.67-.84,11.74-1.09.89-2.01,2.14-3.22,2.43-.03-.89.42-1.55,1.03-2.33,5.9-7.56-.69-14.03-.45-14.72.1-.29.93-.36,1.23-.35Z"/>
  <polygon class="cls-15" points="212.05 251.75 212.45 251.75 212.83 251.76 212.45 251.77 212.05 251.77 211.68 251.76 212.05 251.75"/>
  <rect class="cls-15" x="194.32" y="258.53" width=".41" height=".41" transform="translate(-125.98 213.33) rotate(-45)"/>
  <path class="cls-15" d="M76.22,388.66c-.22.03-.58-.19-.58-.66v-53.33c0-.47.36-.69.58-.66v54.64Z"/>
  <path class="cls-15" d="M76.26,396.82c-.92-1.47-.92-3.8-.04-5.25l.04,5.25Z"/>
  <path class="cls-15" d="M76.22,329.94l-.57-.58c.34,0,.57.24.57.58Z"/>
  <path class="cls-7" d="M241.29,183.93c1.02-2.05.84-2.86.9-4.96,1.97,1.94.82,3.87-.9,4.96Z"/>
  <path class="cls-7" d="M241.35,177.99c.32.46.78,0,.32-.32.32.4.46.5.54.55.37.15.28.56-.09.57l-.76-.81Z"/>
  <path class="cls-14" d="M383.5,185.65c-1.82-.24-2.83-2.21-3.88-3.2l3.65-4.44c1.48.96,3.6,2.4,3.91,4.37.19,1.23-2.27,3.46-3.67,3.27Z"/>
  <polygon class="cls-13" points="87.56 410.17 87.85 410.46 87.56 410.86 87.27 410.46 87.56 410.17"/>
  <path class="cls-14" d="M363.45,285.79c-1.41.51-2.37.56-4.28.56H104.39c-.45.54-.3.94-.26,1.17l-.59.03c-.22-.47-.85-.82-1.43-.61-.36.13-.48.74-.39,1.1l-1.11.05c-.22-.47-.95-.8-1.42-.56-.44.22-.41.9-.35,1.21-8.12,3.04-14.75,10.88-14.77,20.47l-.23,87.37h296.29s.37-51.53.37-51.53c.8-14.77,4.89-28.74,9.37-42.54,5.68-15.49,13.63-27.92,22.97-41.15l18.26-25.87c5.72-8.11,10.01-16.73,13.25-25.81l3.3-9.24c.24-.67.44-1.56,1.15-2.53-.14,7.92-2.41,15.4-4.93,23.41,4.64-1.29,8.19-3.06,12.01-5.37-.85,2.33-2.55,3.69-4.55,4.91l-9.7,5.89-10.54,20.1,12.31-2.56,10.27-3.38c-6.79,7.86-20.64,8.74-26.68,13.76-3.59,2.98-5.68,7.55-8,11.2l-5.92,9.7,20.07-4.4c3.67-.81,7.12-1.89,10.37-3.34-2.28,3.29-6.2,5.22-10.18,6.53l-10.65,3.5c-5.9,1.94-14.99,5.83-16.78,10.69l-.67.71c-.82.75-1.02,1.86-1.41,2.81l-4.72,11.43c-.76,1.84-1.51,3.38-1.62,5.99,33.82-6.35,58.54-30.1,64.86-63.98l.02-1,1.05-6.44c1.27-7.56,1.95-14.9,1.34-22.65-1.2-15.32-4.24-30-9.61-44.06-.45-1.18-.78-2.38-1.9-4-8.4,19.22-21.65,28.74-37.1,40.93l-12.06,9.52-10.77,10.69c-14.7,14.59-19.11,38-15.37,57.92l.07,1.15,1.03,3.45.53,1.73,3.25,8.6c.31-1.6,1.49-.84,1.08.27l-4.02,12.75c-11.47-23-15.36-50.49-3.84-73.54,5.91-11.82,14.38-21.88,24.65-29.93l18.58-14.58c5.5-4.32,10.67-8.54,15.38-13.69,8.79-9.58,14.4-20.89,16.94-34.07,18.38,29.82,25.44,66.54,18.24,100.08-3.12,14.52-9.16,27.61-18.55,39.01-4.25,11.62-9,22.57-14.48,33.58l2.12.17c-.65,1.78-1.4,3.25-2.54,4.91l-22.98,43.45,24.54,49.16h-99.9s-20.09,9.23-20.09,9.23c-22.56,9.41-46.02,15.52-70.25,16.89h-9.91c-.62,0-1,.18-1.13.56h-10.43c-.15-.37-.52-.58-1.14-.57l-7.04.08c-32.43-1.79-62.37-10.92-91.43-26.19H26.19s3.72-7.52,3.72-7.52l20.79-41.41-5.19-9.99-20.08-37.96c.99-.84,1.62-.41,2.65-.33-15.22-28.86-25.77-60.37-27.54-92.86-.09-1.66.53-3.35-.29-5.49,5.83.7,10.27,1.92,15.52,3.3l-1.67-5.92c1.68-1.51,3.58-.76,5.8-.94-3.24-1.65-6.79-1.72-10.41-2.3-3.27-.52-6.33-1.64-9.48-1.37l.02-4.9c7.3.74,14.47,1.78,22.01,3.08.81-2.43.88-4.58.77-6.86l-9.37-1.22-13.27-1.18-.11-1.28c.82-.82.65-2.13.52-3.22l23.13,1.56,1.35-5.72-23.79-1.25-.27-2.58c1.42-17.06,5.49-33.88,11.38-50.16.79-2.18,2.15-3.19,3.8-4.49,7.37-5.86,13.73-12.44,20.27-19.24l11.37-11.84c2.68-2.79,5.25-4.79,9.3-5.5,3.56-.62,8.45-.61,11.42-2.82,2.33-1.73,4.01-4.12,6.29-6,11.52-9.5,23.96-24.57,34.55-31.67,1.24-.83,2.59-.5,3.8.25,8.64,5.39,16.13,11.86,23.47,18.87l12.56,12c.76.72,2.95.41,3.93-.23,14.15-9.28,18.33-13.23,29.06-26.08,5.2-6.23,14.17-5.52,17.02-7.97,4.3-3.69,6.77-8.65,10.41-12.89l3.74-4.36,18.75-16.71c1.69-1.51,3.28-3.03,5.41-4.02,2.93,1.37,5.06,3.88,7.67,5.69,2.98,2.07,4.99,4.64,7.15,7.54l7.66,10.29c5.28,7.1,12.55,6.13,14.22,8.47l11.11,15.64c7,9.85,12.29,6.42,20.75,13,3.97,3.09,7.77,6.07,11.21,9.76.79.85,2.21.24,2.93-.42,6.78-6.24,21.27-19.3,28.23-20.26,4.64-.64,23.9,19.83,29.86,26.42,6.71,7.43,15.46,3.69,20.9,5.98,3.69,1.55,6.21,5,8.81,7.96,7.19,8.18,14.73,15.27,22.86,22.47l14.35,12.72c-2.09,21.57-13.67,33.76-29.83,46.33l-19.29,15c-12.53,10.58-22.56,23.21-28.87,38.38-4.81,13.49-5.96,27.28-3.79,41.11ZM236.38,29.98l-.29.29.29.29.29-.29-.29-.29ZM234.91,31.2l-10.35,9.89c-3.58,3.42-6.96,6.48-9.99,10.41l-7.82,10.14c-6.33,8.21-14.11,5.03-17.47,8.71l-11.4,12.48c-5.24,5.74-11.45,10.04-17.31,15l2.54.77,6.01,3c3.85,2.93,6.96,6.58,10.22,10.1l6.18,6.69c4.84,5.24,9.55,10.58,15.24,14.89l7.31,5.54,6.27,4.69,10.55,5.33c7.4,2.69,16.27,1.53,22.72-3.25,7.07-5.24,12.88-11.65,18.67-18.37-4.61-3.94-8.64-7.26-11.76-11.91-3.38-5.03-7.38-9.62-12.77-13.36l-9.98,5.28-11.36,5.94-12.89,7.58c1.76-4.3,3.88-9.26,5.7-11.72l7.48-10.13,8.99-10.22,10.25-10.63c.6-.62,1.07-1.66.68-2.52l-5.73-12.88c-1.64-3.68,1.69-8.79,5.62-9.25-1.66-7.47-3.18-14.21-3.23-21.6,0-.35-.67-.71-.94-.7-.19,0-.36-.06-.46-.13-.12-.1-.53-.36-.61-.25l-.37.5ZM257.3,69.51l-.29.29.29.29.29-.29-.29-.29ZM109.82,81.2v1.66c-.14.13-.46.42-.48.64-.04.45.12,1.26-.11,1.66-.44.77-.46,1.48-.45,2.38l.08,6.9c.07.5.34,1.5.63,1.96,1.87,2.97,3.96,6.23,5.31,9.44-1.73,4.12-6.09,8.17-8.63,11.6l-14.9,20.22,21.24-16.06c2.45,2.19,5.01,3.79,7.66,5.74l4.02,2.95,12.3,21.46c1.86,3.24,5.5,4.9,8.86,6.82,1.19-2.92,4-4.94,2.62-4.68l-1.2.22c.72-2.94,3.1-5.74,4.39-10.04l4.56,9c-.66.32-.99.53-1.23.81-.36.41-.01.99.32,1.56l2.38,4.04.84.44c.25.13.16,1.34-.12,1.27l-1.95-.44c.78,3.84,6,7.31,6.57,4.73.08-.37.14-.93-.7-1.51l4.06-8.06c2.29,2,2.34,5.07,3.53,7.71.55,1.22,2.08,2.18,1.8,3.58l-1.62.02c-.19,0,.09.39-.08,1.06,1.18.49,2.02,1.43,2.33,2.88,1.43-1.31,2.09-2.61,3.12-4.28-.57-.14-1.16-.25-1.83-.87,2.1-3.29,3.38-6.38,4.9-10.44l3.91,8.22c.21.44.63.99.65,1.4.03.49-.67,1.03-1.52,1.05l3.98,6.59c-1.08.31-1.61-.13-2.34-.39.38,1.9,1.7,2.75,2.96,4.11.46.5.82-.22,1.14-.43.56-.38-.02-1.78.09-2.24l2.85-8.23c2.81,3.57,4.36,8.1,4.27,12.74,4.15,2.99,8.96,4.18,14.12,5.06,5.54.95,11.4-.05,16.95-.98,1.43-.24,2.77-1.27,3.26-2.46-6.39-4.01-14.01-4.9-19.67-9.37-1.8-1.42-3.08-4.4-2.44-6.64.86-2.98,4.25-4.48,6.05-6.69l.93-.06c1.67-.11,3.23-.85,5.3-1.82-1.71-1.58-3.48-1.83-5.09-2.76-4.31-2.49-8.49-5.16-12.42-8.61-.42-.37-1.08-.91-1.48-.78-7.86-6.37-16.17-14.9-23.22-22.73l-5.8-6.44c-3.33-4.96-8.03-8.12-14.01-9.24-5.22-.98-9.54-3.3-13.31-7.07-9.84-9.83-19.81-19.22-30.87-27.27-.28-.2-.66-.49-.87-.33l-.78.61c-10.33,8.07-18.85,18.53-26.97,25.93l-5.51,5.03c-2.06,1.88-3.83,3.71-5.59,6.15l7.46-4.31,13.28-8.82c5.23-3.47,9.68-7.57,14.08-12.05.77-.78,1.33-1.61,2.37-1.52ZM277.87,95.69l-8.93-19.44c-3.74-1.94-6.77-4.52-11.18-5.79,2.66,3.99,6.18,6.41,8.17,10.5,1.48,3.05,2.57,6.48,4.95,8.98,2.11,2.22,4.27,4.4,6.99,5.75ZM347.06,78.75c-6.59,3.7-12.38,8.61-17.88,14.11l-11.6,11.59-8.62,8.93c-3.03,3.14-5.82,7.25-9.92,9.01-4.47,1.92-11.55-1.38-20.38,5.43-7.55,5.83-13.84,12.72-20.45,19.55-4.28,4.42-8.94,7.61-13.92,10.58-3.36,1.15-6.58,2.79-9.86,5.03,2.82,2.67,6.04,3.25,9.27,4.22l11.54,3.48c3.62,1.09,6.54,3.17,8.89,6.38,2.34-.97,4.07-2.25,5.31-4.81h-1.97c.94-1.11,2.07-2.37,2.1-3.82l-.79-1.14c-.2-.3.36-1.18.72-1.46,1.77-1.38,1.08-2.8,1.08-4.45,0-2.28,1.79-4.3,3.46-6.33,1.56,1.83,2.55,3.78,3.64,6.01l-.08,2.87c-.04,1.29,1.79,2.37,1.73,3.79-.02.45-.77,1.07-.68,1.44.11.45.67,1.02,1.34,1.45,1.84-1.54,3.02-3.71,3.83-6.21-.75.24-1.09.6-1.91.4l3.72-7.43c-.61-.48-1.02-.65-1.96-1.03,2.92-3.89,3.11-9.01,6.35-12.31l4.54,9.92c.16.35,1.07.69.66,1.31-.23.34-.94.47-1.96.39l3.78,6.27c-.26.56-1.09,1.41-.8,1.8.46.62,1.36,1.36,1.92,1.48.85.2,1.44-.7,1.86-1.5l.89-1.69c.17-.32-.55-.91-.68-1.26-.57-1.57,1.43-2.64,1.7-3.55,0-1.53.1-2.6.93-4.06l3.04-5.37c2.38,4.21,1.96,8.29,4.32,10.35.39.47-.22,2.06.23,2.47.75.68,1.9.89,2.99.24,4.25-2.51,8.59-4.76,12.29-8.05,1.47-1.31,2.52-2.86,4.4-3.79,5.05-2.49-3.3-10.68,2.13-16.52l12.83-13.83c1.91-2.06-3.98-6.43-5.11-9.62-.13-2.29,1.03-5,1.69-7.25l4.19-14.28,10.68,5.19,10.02,4.81.38-.51c-2.2-3.29-5.21-5.98-8.23-8.85l-8.96-8.51c-.87-.82-1.71-1.44-2.7-.89ZM278.23,96.25l-.29.29.29.29.29-.29-.29-.29ZM367.26,97.23l-.36.47c.03.16.1.31.21.43l.47-.48-.32-.41ZM368.43,98.07l-1.1.29c.68.73.75-.03,1.1-.29ZM386.12,125.09l5.24-6.03c-3.84-2.2-5.72-6.36-8.98-6.18l-7.14,6.8,7.35,8.33c1.82-.18,2.4-1.62,3.53-2.92ZM394.05,123.03c-1.65.61-6,7.74-10.67,10.7l-11-10.55c-.95-.92-3.37.89-3.74,2.44l14.46,14.49,12.69-12.01c.67-.64,1.41-1.16,1.47-1.93.11-1.47-2.06-3.55-3.21-3.13ZM82.64,162.85c1.27-2.66,3.4-4.59,4.86-6.62l-1.78-2.38c-.39-.52.55-1.39.98-1.96-.42-2.07-1.89-4.08-2.85-5.94.94-.13,1.59-.57,1.53-1.02-.06-.48-.55-.81-.83-1.18-1.73-2.35-2.09-4.98-3.79-7.85-1.51,3.39-2.42,6.43-4.66,9.03-.37.44.02,1.22.31,1.06.33-.18,1.06-.49,1.6-.16l-3.3,6.16c.54.65.91,1.26.64,1.8-.25.51-1.46,1.53-1.81.98l-5.67-9.02,3.24.46-4.75-8.8c.12-.53,1.39-.38,2.45-.09l-5.68-12.74c-1.37,5.05-4.07,8.67-6.88,12.76,1.5.44,2.47-.38,3.63-.52-.73,3.26-2.84,5.49-4.15,8.29.25.57,1.36.51,2.2.1.12,1.45-1.34,5.33-3.17,5.37-2.46-.1-1.33-3.82-1.57-5.26-.33-2.02-2.26-3.78-2.39-5.95l2.09-.28c-2.68-2.91-3.67-6.14-5.18-10.17-1.52,3.99-2.33,7.18-4.89,10.31l2.13,1.15-3.31,5.98c2.53,1.37,3.42,4.9,4.97,6.62,3.51,2.08,7.1,3.38,8.95,7.41,8.8-7.04,21.51-7.09,27.07,2.43ZM338.83,168.16c.95.76,3.07-.8,3.09-1.6.05-2.13-4.88-3.95-2.34-6.1.85-.72,1.97-.56,2.78.43l4.96,6.01-9.96,10.05c.71,1.51,1.84,2.58,3.36,3.16l12.2-11.75,9.32-9.32,13.82-14.05c.89-.91,1.32-2.55.42-3.66-3.27-4.08-6.86-7.89-11.02-11.05-1.65-.68-3.61,1.33-4.56,2.36l-5.89,6.43c.67,2.04,2.51,3.22,3.82,4.72,1.57,1.81,2.85,2.75,4.87,1.88,1.55-.67,3.76-3.13,1.76-4.43-1.3-.07-4.46.65-4.37-2.07.05-1.48,2.09-3.18,3.51-3.96,2.86,1.89,5.15,4.15,7.5,7.08l-7.32,7.68-13.51,13.75-6.86-6.65c-.99-.96-1.53-2.33-2.97-2.43-2.08-.15-8.71,4.89-7.7,7.77.71,2.01,3.23,4.27,5.11,5.77ZM423.42,156.03l-7.71,7.9-17.93-17.82c-.81-.81-3.28-1.78-2.94-3.27,1.36-3.06,4.11-5.94,6.94-7.58.85-.49,5.07,2.11,3.89,4.48-.36.72-1.15,2.06-2.37,1.43-.93-.48-1.93-.94-2.47-.16-.48.69-.42,1.82.3,2.39l3.62,2.88c3.86-1.45,7.94-6.8,5.83-8.89l-5.78-5.74c-1.83-1.81-4.06-1.42-5.78.21-3.54,3.37-7.08,6.51-9.63,10.77,1.09,2.11,2.91,3.53,4.4,5.15l5.3,5.79,15.2,14.96,6.05,5.61c.71.66,1.13,1.75,2.07,1.76,1.15,0,2.87-2.32,2.59-3.69-.12-.6-.97-.81-1.39-1.28l-4.02-4.45,5.35-6.43c.73-.87,2.36.6,2.72,1.32.8,1.57-2.39,3.39-1.97,5.31.14.63,1.38,1.84,2.3,1.4,2.13-1.02,4.71-4.01,4.56-6.57-.11-1.85-5.01-6.32-6.15-6.56-1.04-.22-2.04.12-2.97,1.07ZM351.44,157.03c2.67-.91,5.88-3.55,6.43-6.13.5-2.34-2.21-3.68-3.43-4.89-1.62-1.61-3.51-2.27-5.42-.65-1.14.97-3,2.22-3.69,3.62-1.9,3.87,4.92,8.45,6.11,8.04ZM420.99,148.39c-1.23-1.77-3.87-3.75-6.29-3.44s-5.89,3.8-5.54,6.24c.37,2.57,3.94,4.92,5.89,5.71,4.14-.52,8.1-5.4,5.94-8.51ZM22.7,152.58c-1.48,1.64-1.56,3.98-1.98,6.38-1.71.48-4.94-.1-6.01,1.85-4.26,2.8-5.05,8.94-1.39,12.96-1.51,4.34.13,8.62,3.87,11.18,4.3,3.74,11.68,1.78,11.98-.67.45-3.59-8.11-5.98-8.34-12.7,1.64,1.83,3.38,3.28,5.69,4.67,1.18.71,1.87,2.2,3.49,2.54.38-4.65.48-8.9,1.62-13.55,1.45,2.63.85,5.51,1.27,8.54l6.86-4.27c-1.02,1.92-2.07,3.22-3.68,4.8-2.12,2.09-4.43,6.22-2.3,9.31,2.73,3.96,9.79,3.77,12.33.2l2.31-3.25.32-.53c.99-1.65.1-4.53.95-6.19,1.86-3.64,2.95-6.81,1.44-10.72-1.38-3.57-5.1-4.71-8.8-5.69-.59-2.82-1.43-6.54-4.72-8.09-5.37-2.54-11.08-1.04-14.92,3.23ZM113.41,167.4c-.48-1.61-1.11-3.25-.86-5.12,1.21.4,2.35.11,2.58-.62.21-.68-1.35-1.83-1.91-3.72-.13-.44.59-1.04.92-1.65l-4.03-8.47c-.99,3.38-2.2,5.9-3.76,8.71.8.59,1.27,1.42,1.07,1.94-.19.49-.9,1.48-.86,2.28,2.66,1.71,5.05,4.29,6.27,7.01l.59-.35ZM373.71,166.76l9.91-9.22,16.94,16.76c2.5-1.7,3.91-4.06,5.65-6.42-1.76-1.94-2.91-3.32-5.15-4.74l-.58,5.19c-5.11-.62.73-8.17-5.99-11.01-.26,1.87.21,3.5-.73,5.56-3.6-3.95.08-8.18-4.63-10.81l-.88,3.85c-.98.63-2.16-.4-2.43-1.07-.81-2.02.77-5.19-.66-6.34-.81-.65-2.48-.53-3.15-.08-1.51,1.01.02,4.77-.88,6.38-.35.63-1.33,1.17-2.64,1.26l-.07-4.08c-1.27.24-3.27,1.08-3.27,2.42l-.03,5.83c0,1-.89,2.42-1.89,2.19-.88-1.28-.58-3.31-.63-5.2-6.86,2.57-1.24,10.18-5.88,11.39l-.55-6.15c-2.18,1.94-4.07,3.81-5.77,6.21,2.19,1.78,3.81,3.35,5.6,5.63l7.73-7.55ZM236.23,182.84c-1.94,2.03-4.14,3.22-6.88,3.85l-15.52,3.62c-11.08,2.58-40.77,6.21-39.75,17.19s36.85,13.12,44.9,24.42c5.2,7.3-6.97,13.51-16.04,16.06-8.32,2.34-16.49,3.88-25,5.19l-13.62,2.11c-10.3,1.59-20.22,3.56-29.94,6.5-11.56,3.5-23.71,9.36-32.53,18.62,3.25.57,5.52-.77,8.23-.78l27.17-.16h2.28s87.32.09,87.32.09l2.79.03c.37,0,.89.44,1.34-.08l1.04-.02,16.13-.22c-4.35-3.57-6.34-9.2-3.03-13.57,3.13-4.13,8.19-5.8,12.26-8.57l11.44-7.79c3.23-2.2,4.58-5.69,4.87-9.35.74-9.65-11.79-15.34-20.85-18.3-4.46-1.46-9.01-2.37-13.67-3.52l-15.76-3.86c-5.89-1.44-14.29-3.84-15.01-8.04-.81-4.66,9.85-7.51,16.21-9.4,9.91-2.93,19.52-5.58,28.74-10.09,2.51-1.23,5.14-4.39,3.91-7.08-1.3-2.84-5.1-4.77-7.69-4.86l-8.03-3.16c-5.36-1.93-13.9-3.87-14.48-7.38-.17-1.06.06-2.57,1.09-3.36l7.52-5.8c-6.57,1.55-21.5,5.45-21.78,10.01-.22,3.74,8.2,6.07,12.61,8.09l7.97,3.64c2.55,1.16,2.09,4.01,1.8,5.94ZM90.21,160.5c-1.93,1.26-2.13,3.2-3.24,5.46-.63,1.29-2.64,2.13-2.68,3.89-.03,1.67,1.17,3.01,2.06,4.43,3.57,5.66,1,7.6,6.08,9.25l2.29.74v10.8c0,.74.42,1.22.64,1.51.35.45,1.9.5,1.91-.21l.08-5.62c.03-2.19-.16-4.05.46-5.93l5.23-1.39c.22.56.06,1,.01,1.31l.05,1.06-3.93,2.98c.9,2.48,3.29,3.24,5.6,3.32,1.63.05,3.77.56,5.54-.18,3.03-1.27,3.14-5.29,1.04-7.54-2.31-2.47,2.36-2.64,1.33-8.64-.3-1.73-1.35-3-2.97-3.76-.97-4.64-4.27-8.58-9.72-7.57-.63-2.31-1.96-4.08-3.63-4.82-2.28-1.02-4.41-.2-6.16.95ZM62.21,162.91c-2.62,1.76-4.64,3.91-5.33,7.14l-.91,4.26c-5.25,4.52-4.6,12.66.97,16.84,1.78,1.34,4.84,1.87,6.83.83,1.72-.9.35-2.72-.04-3.73l-3.1-8.13,5.95,6.58c.69-4.21.58-7.84,1.84-11.62l1.4,8.54c2.41-1.48,4.31-3.18,7.19-4.1l-6.71,7.72c-.29.33-.48.86-.41,1.34l.23,1.22c-1.77-.57-.12-3.05-1.66-5.96-1.49,3.89-1.3,7.98-1.64,12.39l-1.11,14.71c1.44.7,3.2,1.05,5.1.73l-1.25-19.33c-.02-.32-.58-.96-.2-1.39.19-.22.67-.3.99-.29,2.74,2.88,7.82,2.51,10.61-.1,1.06-1,2.41-1.82,3.02-3.45,2.04-5.5.32-11.59-4.29-15.44.5-4.36-1.56-8.06-5.45-10.17s-8.62-.89-12.03,1.4ZM324.66,167.92c-.2-1.68-1.05-3.05-2.21-3.98-1.27-1.03-3.4-.31-3.97.79-.42.81-1.47,2.59-.29,3.28,1.88,1.09,4.14.76,6.47-.09ZM391.9,179.33c-3.04.61-4.83-3.82-8.66-6.07l-8.12,6.77c-1.07.89-.99,2.4,0,3.32l8.63,8.06,10.48-9.49c1.19-1.08,4.52-2.77,3.53-4.66l-13.52-13.63c-.68-.69-2.4.66-2.96,1.2l-12.72,12.32c-.71.8,2.02,3.22,2.7,2.55l12.07-11.87,10.04,9.21-1.48,2.29ZM121.62,168.48c-1.19,3.28-3.19,5.97-5.37,9.47,1.26.43,2.19-.47,3.68-.35l-4.86,9.46c1.08-.47,1.85-.91,3.1-.61l-4.01,6.98c2.27.59,4.23,1.1,6.19,1.12,3.16,1.17,6.53,2.29,9.88,2.37l.75.02c.61.39,1.27,1.06,2.33.34l-3.46-6.44c-.56-1.04-.84-2.05-1.88-3.4l3.84.93-3.88-7.27c-.66-1.24-1.61-2.49-1.53-3.74.74.35,1.52,1.04,3.1.71-2.92-4.01-4.52-8.15-6.06-13.08-1.32,1.13-1.44,2.4-1.83,3.47ZM113.77,167.71l-.32,1.01c.74.31.99-.77.32-1.01ZM143.85,179.6l-4.17,8.51c.89-.03,1.75-.26,2.86.11l-4.8,7.93c-.31.51-.97.8-.78,1.48.14.51,1.05.3,1.44.3l6.97-.02.56-.11c-.51,1.53-.17,3.06-.29,5.11.7.57,1.85.79,3.03.69.24-1.99.34-3.9-.36-5.6l9.33-.09-4.84-7.31c-.63-.95-1.22-1.54-.56-2.52.77.11,1.32.61,2.71.45l-5.14-7.85c.27-.76,1.51-.98,2.03-.71.3.16.82.52,1.38-.02l-6.1-11.97c-1.98,4.1-2.92,7.79-5.77,11.17.62.51,1.48.37,2.49.46ZM321.69,172.06l-8.82-2.33,4.06,8.06c1.67-2.36,2.63-3.91,4.76-5.74ZM291.43,185.32c.97-.52,3.32.65,4.48.49s1.36-1.66,1.18-2.56c-.31-1.5-4.08-2.1-7.58-4.84-2.36,3.81-2.42,9.06.11,12.41,2.75,3.63,6.63,5.4,10.7,5.43s7.97-1.77,10.64-5.43c3.14-4.31,2.83-10.21-.53-14.44-4.9-6.14-16.07-5.9-19.38.71,2.96,1.04,5.49,1.82,7.67,3.71l4.48-4.02c.68-.61,1.92-.81,2.58-.48.7.36,1.47.92,1.97,1.95-6.26,2.79-10.27,6.83-8.61,13.49.21.85-1.54,1-2.05.75-.7-.33-1.23-.83-1.28-2-.11-2.37-5.58-1.34-4.36-5.18ZM354.79,175.47c-1.63-.54-2.03,1-2.86,1.66-3.6,2.85-9.88,9.47-9.79,11.3.07,1.42.85,3.12,2.53,3.83,2.92-4.41,6.62-7.52,10.73-10.36,1.17-.8,2.04-2.08,2.45-3.2.64,1.02,3.16,2.26,2.38,3.87s-2.47,3.21-3.71,4.24l-2.63,2.19c-1.91,1.59-3.49,2.92-5.25,5.22.28.2.95.31,1.55.29-.05.95.71,1.47,1.43,1.59,1.31.22,3.61-1.75,4.1-2.84.1-.23.53-.36.67-.5l10.6-10.96-8.27-8.84c-.54-.58-1.26-1.04-1.9-.89s-2.23,1.47-2.65,2.37c-.2.41,0,.93.62,1.02ZM407.1,173.96l-7.01,8.06c2.36,2.09,3.93,4.51,5.91,7.2,1.5-.08,3.92-1.76,3.68-3.19-.73-1.4-3.48-2.36-3.27-4.38.15-1.42,1.87-2.75,2.79-3.68l3.46-3.47c-.57-.86-1.63-2.33-2.8-2.6-1.44-.33-2.14,1.35-2.76,2.06ZM321.01,205.3c1.13,1.96,2.62,3.52,4.5,4.93l.54-10.59c.15-2.88-.63-5.87,1.11-8.73l1.28,17.67c9.5-9.54,7.08-20.76-.24-30.93-.61-.85-1.21-1.56-2.06-2.33l-4.96,8.35c-4.06,6.83-4.14,14.77-.18,21.63ZM162.82,201.19l-.42,4.45c-.03.5,1.51.8,2.15.31l.04-4.22c0-.84-.06-1.57.15-2.44l5.79-.07c-.7-2.54-2.22-4.05-3.46-6.17l.87-1.75c.17-.33-.54-1.72-.95-2.05-1.4-1.12-.27-2.47-.38-3.28-.32-2.29-1.84-4.45-2.72-6.99-1.1,2.82-2.05,5.05-3.99,7.41l1.91,1.01-2.88,4.51c.65.15,1.41.5,1.66.9l-2.52,5.75,4.17.64c.68.1.64,1.47.59,1.99ZM34.39,204.31c-1-5.27-.89-9.61-1.47-14.25l-.76-6.07c-1.59,1.13-1.71,2.84-1.94,4.65l-1.91,14.76c2,.51,3.9,1.11,6.08.9ZM398.65,187.39c-.11-.98-1.26-1.59-1.93-1.66-.78-.08-1.74.17-2.4.79l-10.71,9.91-12.04-11.38c-.94-.89-3.18,1.16-2.64,2.26,4.67,5.26,9.77,9.75,15.45,14.27l14.28-14.18ZM93.3,190.04c.41-1.07.46-2.28-.06-2.8-.79-.78-2.95-1.77-3.96-1.22-.88.54-1.07,3.21-.38,3.86,1.05.99,3.3.85,4.39.15ZM226.7,207.38c.19.17.44.34.71.38.38.07.83.07,1.17,0,2.27,1.41,4,.51,6.26-.52,15.27-6.98,30.87-12.22,47.11-16.28,1.07-.27,1.34-1.1,1.27-1.85l-.24-2.51c-17.6,3.53-34.67,8.39-51.49,14.89-3.79,1.46-7.39,2.1-10.73,4.46l5.95,1.42ZM371.38,206.5c-1.25,5.59-1.47,10.98-1.14,16.82l10.01-12.58c2.08-2.61.19-5.5-1.58-7.6-2.7-3.2-5.03-6.09-8.48-8.49l-4.65-4.5c-2.2,1.43-4.39,3.39-5.27,5.89,1.65.6,3.75,1.3,4.34,2.61-1.53,4.82-2.26,9.42-2.48,14.48l-.55,12.69c1.5,1.36,2.69,2.85,4.64,3.72-.08-10.47.76-20.21,2.57-30.62,2.57,1.71,3.24,4.68,2.59,7.57ZM56.02,203.41c-.67-6.53-10.04-11.37-14.82-7.28,5.99,1.89,9.63,7.12,14.82,7.28ZM246.54,212.12c1.29.38,3.48,1.78,5.05,1.08l12.27-5.51,25.26-9.49c-.2-1.25-1.12-1.29-1.77-1.83-.56-.47-.96-2.1-2.35-1.74-15.12,3.91-29.6,9.25-44.07,15.83,1.79,2,3.93,1.17,5.61,1.66ZM85.01,202.12c1.76-1.46,3.19-2.95,5.21-4.7-4.11-1.85-7.62.49-10.08,3.33-1.75,2.02-2.81,4.34-2.04,7.11l6.91-5.73ZM115.67,200.3c-3.94-4.77-11.61-3.92-14.93,1.37,5.06-.56,10.18.45,14.93-1.37ZM54.82,204.72c-6.61-.03-8.55-6.12-14.25-6.84-.44,1.6.02,3.11,1.03,4.52,3.91,5.47,12.37,6.84,13.22,2.31ZM88.93,207.87c2.29-2.32,3.74-5.3,2.54-8.47-4.68,2.79-7.03,8.05-12.57,10.05,1.38,3.67,7.21,1.29,10.03-1.57ZM115.27,205.59c.75-.76,1.11-2.31.93-3.64-5.7,3.93-10.28.16-14.95,2.35-.04,3.94,9.32,6.06,14.02,1.29ZM120.35,204.72c-.13.41-1.28,1.67-.53,1.91l26.42,8.56c14.84,4.81,28.5,11.8,42,19.56l9.61,6.26,7.49-2.09c1.42-.4,2.94-.83,4.13-2.02-2.03-2.92-5.09-4.33-8.03-6.04-6.81-3.95-13.89-6.54-21.13-9.76-12.96-5.75-25.86-10.78-39.65-14.25l-19.77-4.98c-.66.69-.32,2.14-.54,2.84ZM296.59,205.58c.32,1.04.69,1.9,1.03,2.85,3.44,9.63,11.08,16.16,22.06,15.39-1.36-3.45-3.86-5.14-6.01-7.09l-4.79-4.33c-.11-.1-.25-.5-1.12-.79.88,1.03,1.21.16.8-.25.38.45.67.59.78.64,9.78,4.85,15.48,10.58,16.25,21.99-3.07,1.67-7.23.75-10.82,4.27l8.5,1.07c4.86-.09,9.45-.3,14.05,1.63,2.68-2.15,5.3-4.26,6.96-7.45-1.71-.93-3.49-.18-4.87.93l-3.98,3.2-7.52-2.93c1.1-12.23,7.04-19.17,18.43-23.64-4.12,3.8-9.36,6.52-12.44,12.15,8.02,1.3,15.55-2.92,19.06-9.93l2.07-3.31,2.57-6.63c-7.22-.87-14.18.54-19.82,4.57-3.51,2.51-5.96,5.87-7.23,9.8l-4.05,7.81-3.21-7.82c-4.42-10.76-15.96-15.86-27.5-14.75l.82,2.62ZM263.08,217.15c8.51,4.43,7.68,1.12,12.56-1.03l15.62-6.88-1.54-3.75c-.36-.87-.73-1.37-1.24-1.56-1.75-.65-22.65,7.84-28.6,11.63,1.09,1.02,2.18,1.07,3.2,1.6ZM90.68,216.79c1.98-2.26,3.67-4.41,6.3-5.62.31-.14,1.03-1.38.63-1.6-2.04-1.11-4.26.12-6.17,1.28-3.5,2.12-6.01,5.86-4.37,10.05l3.61-4.12ZM48.99,219.37c-.23-2.54,0-4.23.64-6.6l-12.85-2.66,1.82,6.39,10.39,2.87ZM97.19,220.39c2.25-2.78,2.94-6.24,2.18-9.79-4.06,3.12-6.5,8.38-11.11,12.35,3.23,1.35,6.71.18,8.93-2.56ZM113.67,212.29c-2.25,1.05-4.22.67-6.9,1.12,19.67,5.86,38.58,13.65,56.24,24.44l11.04,7.91,11.38-1.69c1.33-.2,2.78-.06,3.77-1.25-10.98-6.83-21.47-13.27-33.08-18.28-12.95-5.59-25.67-10.13-39.25-13.59-1.14-.29-2.42,1.06-3.19,1.33ZM30.52,214.63c1.44-.41,1.18-3.04-.18-3.19-1.17-.13-1.58,1.12-1.48,1.71.11.66.41,1.83,1.66,1.48ZM62.16,220.13c1.22,1.36,2.82,1.8,4.21,3.92,1.75-6.38-5.42-14.2-11.37-11.89l7.16,7.97ZM55.79,214.95c-.24-.59-.96-1.19-1.39-1.2-.63,0-1.08.68-1.18,1.57-.62,5.53,3.73,10.84,9.21,11.42.72.08,1.49-.77,1.49-1.19,0-2.08-4.81-2.33-8.14-10.61ZM276.66,225.34c.76.93,1.56,2.95,3.16,3.41,1.7.49,3.07-1.62,4.39-2.3l13.06-6.83c-1.3-1.48-2.54-3.06-3.01-4.3-.18-.47-.62-1.59-1.32-1.97l-18.53,9.17c-.06,1.6,1.59,2,2.25,2.82ZM103.01,218.68l-3.86,4.67c11.32,4.46,22.8,9.48,33.43,15.44l16,10.88,8.91-1.39,6.56-1.01-6.02-4.9c-9.38-6.07-18.72-12.16-29.3-16.01l-23.06-8.39c-1.18-.43-1.92-.18-2.66.71ZM31.29,221.44c.12-.64-.04-1.6-.76-1.89s-1.64.28-2.32,1.14c-.38.26-1.04-1.28-1.55-1.47-.93-.35-1.35.68-1.41,1.25s.07,1.48,1.04,1.35c3.2-.44,4.59,1.88,5-.38ZM34.64,220.75c0-.72-.59-1.31-1.31-1.31s-1.31.59-1.31,1.31.59,1.31,1.31,1.31,1.31-.59,1.31-1.31ZM132.56,252.92c.35-.23.88-.25,1.49-.11.39.09.58.02.86-.06l4.47-1.22c-2.96-2.39-5.49-4.16-8.44-5.56l-.42-.31-.63-.55c-4.53-4.02-9.88-6.68-15.48-9.2l-19.6-8.82c-3.51,1.08-7.01.49-9.78-1.57-.13-.33-.32-.52-.59-.72-.25-.18-.82-.46-.96-.77-.47-.97-1.05-1.25-2.11-1.52l-9.88-2.57c-.21,2.55-.55,4.69-1.3,7.21l17.1,6.87c13.35,5.37,25.28,12.73,36.62,21.8,3.1-.66,6.17-1.24,8.65-2.9ZM27.33,225.19c0-1.64-1.54-2.31-2.12-1.7-.82.87-.42,1.94.1,2.42.55.51,2.02.43,2.02-.73ZM33.42,223.27c-.71.28-1.32,1.45-1.08,2.01.33.77,1.31,1.28,2.02.85.58-.35,1.01-1.35.85-1.98-.18-.71-.86-1.24-1.78-.87ZM31.56,225.29c0-.93-.76-1.69-1.69-1.69s-1.69.76-1.69,1.69.76,1.69,1.69,1.69,1.69-.76,1.69-1.69ZM43.79,223.2c-5.42,1.26-7.51,7.45-7.09,12.76,4.01-2.49,3.72-7,7.09-12.76ZM307.78,228.33c-2.79-1.82-4.62-2.88-6.65-4.94-6.51,3.34-12.63,6.5-18.61,10.63,1.2,3.19,1.01,6.05.57,9.38,8.28-5.53,16.06-10.6,24.69-15.07ZM26.17,239.28c.21-4.6-1.14-7.92-2.46-11.43-1.07-1.63-2.09-3.28-4.05-3.48,1.71,3.82,2.42,7.07,3.22,10.64,1.1,1.56,2.04,3.13,3.3,4.27ZM62.81,232.07c-7.11-1.22-10.99-6.95-16.42-7.18-.64,2.55-1.56,4.69-1.66,7.41,4.73,1.01,7.95,3.6,11.03,7.28,1.82-3.72,3.93-6.35,7.06-7.52ZM31.46,229.44c0-.97-.79-1.76-1.76-1.76s-1.76.79-1.76,1.76.79,1.76,1.76,1.76,1.76-.79,1.76-1.76ZM35.56,229.27c0-.86-.7-1.55-1.55-1.55s-1.55.7-1.55,1.55.7,1.55,1.55,1.55,1.55-.7,1.55-1.55ZM102.14,263.34c1.07.77,1.98.99,3.26.38l10.05-4.76c-1.12-1.35-2.02-2.4-3.29-3.37-10.05-7.61-20.91-13.5-32.4-18.66-3.04-1.36-5.53-2.7-8.81-3.59-1.67-.45-3.1-2.42-5.37-1.33,3.41.98,5.56,3.09,7.12,6.13s2.92,5.5,3.34,8.95c.2,1.62.48,4.03,1.67,5.25,1,.71,3.15-.4,4.24-.87,8.25-3.49,13.95,1.7,11.71,3.11-.46.29-1.07.55-1.74,1.36l10.23,7.38ZM31.57,234.02c0-1.01-.82-1.83-1.83-1.83s-1.83.82-1.83,1.83.82,1.83,1.83,1.83,1.83-.82,1.83-1.83ZM33.1,235.28c.83.6,1.6-.02,1.77-.54.28-.81.38-2.1-.46-2.34-.96-.27-1.53.44-1.63.89-.1.48-.19,1.62.32,1.99ZM341.39,246.4l3.51-2.39,8.84-8.94c-1.27-1.52-3.65-1.35-5.13-.04l-9.21,8.16c.46,1.45,1.02,2.32,1.99,3.2ZM17.66,239.3c3.04,7.47.97,16.95,9.99,20.07.2.07.38.91.35,1.12-.04.27.64.53.62-.05l-.04-1.17c1.15-6.58-2.41-16.41-8.04-21.33-2.2-1.93-4.47-3.84-7.87-3.11,2.09,1.28,4.11,2.32,4.98,4.46ZM31.38,262.37l-1.48,2.59-.78,12.84c-.02.38-.94.02-.96-.35-.94-4.98-2.33-10.02-5.35-14.41-2.82-4.09-8.45-5.27-12.55-2.55-1.29.86-1.84,2.41-1.7,3.99,1.9-2.24,3.5-1.96,5.29-2.15,6.86,5.41,5.27,15.67,14.8,21.22v36.3c0,.83.47,1.71.93,1.81.5.11,1.58.02,2.41-.15l-.05-50.84.28-3.17c9.24-6.53,7.14-18.9,11.33-27.84,1.2-.64,2.64-.29,4.14-1.75-7.9-4.78-12.98,6.43-14.69,15.72l-1.62,8.74ZM29.31,240.75c1.07.53,1.95-.35,2.26-1.08.38-.88.15-1.71-.41-2.2-.62-.54-1.68-.8-2.35-.21-.98.87-.66,2.92.5,3.49ZM320.38,256.71c-.34-.7-1.09-.61-1.74-.6l-5.29.04c-.82.2-1.77.34-2.9-.16,1.49-2.71,4.27-4.08,6.99-4.17l10.55-.13c3.53-.11,8.37-2.44,7.95-4.46-1.12-5.39-7.47-1.73-18.27-3.44l-11.99-1.9c-9.54-.48-18.04,5.28-22.52,13.17-1.69.81-2.49,2.75-3.59,4.39l-6.44,9.56-6.22,9.22c-.25.23-.74.16-.65.9.03.23-.03.91.64.9l22.64-.38c1.32-.81,2.06-2.62,2.78-3.93,6.28-11.53,13.37-7.56,24-7.42,3.74.05,7.8,1.44,11.4.3,6.59-2.1,12.48-5.86,18.11-9.62,2.32-1.55,3.92-3.49,5.62-5.52l5.01-5.95c.31-.36.25-1.1.26-1.75,2.15-1.27,3.99-3.05,4.84-5.31.32-.84.93-2.32-.26-3.18-1.57-1.13-3.98-.37-5.34.97l-10.82,10.63c-4.65,3.68-9.81,6.54-15.65,7.55l-9.1.29ZM63.21,240.81c.17.94,1.79,1.11,2.51.49.45-.39.85-1.26.37-2.06-.3-.5-1.02-1-2.4-1.11-.26.58-.65,1.74-.48,2.68ZM48.03,238.68l-.29.29.29.29.29-.29-.29-.29ZM30.92,244.62c.6-.96.28-1.97.21-2.42-.05-.32-.81-.67-1.4-.47-1.07.36-.9,1.38-.7,1.99.28.87,1.48,1.57,1.9.9ZM60.28,245.38c1.15-.12,1.27-.9,1.3-1.73.02-.58-.74-1.44-1.4-1.26s-.85,1.31-.86,1.76.49,1.28.96,1.23ZM69.71,244.25c0-.73-.59-1.32-1.32-1.32s-1.32.59-1.32,1.32.59,1.32,1.32,1.32,1.32-.59,1.32-1.32ZM51.67,253.17l1.36-7.08-6.79-2.98c.37,2.28.36,4.2.26,6.55l5.17,3.5ZM66.24,244.87c0-.99-.8-1.79-1.79-1.79s-1.79.8-1.79,1.79.8,1.79,1.79,1.79,1.79-.8,1.79-1.79ZM61.13,249.19c0-.95-.77-1.73-1.73-1.73s-1.73.77-1.73,1.73.77,1.73,1.73,1.73,1.73-.77,1.73-1.73ZM71.49,249.16c0-.97-.78-1.75-1.75-1.75s-1.75.78-1.75,1.75.78,1.75,1.75,1.75,1.75-.78,1.75-1.75ZM66.07,251.47c1.31-.68.78-2.27.06-2.97-.66-.64-2.08-.78-2.93,0-.48.44-.96,1.38-.37,2.43.44.77,1.99,1.19,3.23.54ZM60.77,254.79c0-1.11-.9-2.02-2.02-2.02s-2.02.9-2.02,2.02.9,2.02,2.02,2.02,2.02-.9,2.02-2.02ZM72.55,254.85c0-1.12-.91-2.02-2.02-2.02s-2.02.91-2.02,2.02.91,2.02,2.02,2.02,2.02-.91,2.02-2.02ZM66,257.58c1.44-.51,1.3-2.69.43-3.55s-2.41-1.06-3.33-.26-1.28,2.1-.54,3.44c.4.72,2.12.84,3.44.37ZM69.01,275.92l-2.46,8.95c-.67,2.45-1.12,4.79-.31,7.2l2.2-5.46c2.53-3.8,5.51-7.21,9.86-9.24.02-6.31,1.95-11.32,3.2-16.52,1.67-2.04,3.13-3.97,5.45-5.88-9.11.86-15.68,12.73-17.94,20.94ZM53.42,269.19c-.07-5.7-2.86-11.4-8.7-13.75,2.36,3.55,4.29,6.49,5.72,10.2.5,1.31,1.17,2.6,2.98,3.54ZM60.06,262.29c.53-1.28.35-2.51-.19-2.98-.7-.6-1.89-.53-2.48-.27-.79.34-1.1,1.24-1.05,2.3.06,1.28.79,1.77,1.59,1.92s1.67.11,2.12-.96ZM67.44,261.79c0-1.45-1.18-2.63-2.63-2.63s-2.63,1.18-2.63,2.63,1.18,2.63,2.63,2.63,2.63-1.18,2.63-2.63ZM72.57,259.32c-1.95-1.18-3.4-.06-3.45,1.04-.04.77.19,2.6,1.29,2.7,1-.88,1.89-2.55,2.16-3.74ZM97.64,267.83c-3.55-3.01-6.47-5.68-10.67-7.68,2.4,4.11,4.14,7.65,4.88,12.42,2.26-1.51,4.08-2.59,5.79-4.75ZM59.67,269.11c.91-1.33.24-3.35-.94-3.57-1.75-.32-2.05,1.56-2.02,2.54.04,1.37,2.06,2.35,2.97,1.02ZM66.49,266.23c-1.26-.82-3.44-.53-4.01.27-.51.72-.6,2.46.08,3.37.89,1.21,2.8.97,3.85.02.84-.76,1.66-2.65.08-3.66ZM84.97,282.65c1.37.5,2.53,1.07,4.05,1.9-.51-2.06-1.91-5.06-4.23-5.51-6.43-1.24-14.05,8.37-16.31,15.85l-3.33,11.32c-.59.14-1.16.17-1.83,0l-1.67-9.97c-1.95-10.16-5.9-22.31-14.18-27.53-4.5-2.84-8.92,1.55-11.41,7.16l5.38-4.56c1.12-.95,2.63-1.18,3.84-.84,3.64,1.04,5.13,9.89,5.11,15.54-.03,8.68,3.39,16.92,9.79,22.71,3.02,2.74,6.61,2.99,9.75.34,7.24-6.09,6.12-14.66,10.39-23.25.95-1.91,2.8-3.08,4.64-3.17ZM59.78,273.33c-.15-.91-1.96-1.17-2.29-.35-.43,1.07.6,3.01,1.92,3.61.48-.9.59-1.93.37-3.27ZM65.5,272.71c-1.15-1.1-3.4,0-3.46,1.65-.04,1.1.59,3.49,2.31,2.84,1.12-.44,1.98-3.63,1.15-4.5ZM38.67,296.84c2.41-6.66,10.6-10.44,5.94-17.37-2.73-.44-5.18,5.88-5.4,9.22l-.54,8.14ZM64.09,280.12c.06-.85-.92-.71-1.23-.44-1.06.95-.55,2.84.39,5.01.8-1.46.71-2.66.84-4.57ZM395.05,321.86l33.16-.05,9.27-21.13c-7.3,4.94-13.94,9.27-21.68,12.43-6.53,2.32-12.9,3.93-19.79,4.45-.86,1.33-1.42,2.69-.95,4.3ZM47.7,310.64c-.08,1.29,1.28,1.95,1.8,2.92,1.55,2.87,2.51,5.78,4.74,8.18l5.58.13-1.54-6.62c-.85-3.69-3.42-6.08-6.56-8.51-3.94-3.05-10.04-3.11-12.5,1.88-1.99,4.03-3.25,8.9-2.67,13.72,3.26-5.23,5.98-9.83,11.16-11.69ZM66.83,322.13l-.04-7.88c-1.33-.17-2.45-.21-3.73.01l.07,7.77c1.27.35,2.41.42,3.7.09ZM38.05,329.5l21.4,40.27-20.85,41.39,39.28.03,15.88-.16-15.72-8.41c-.24-.36-1.21-1.05-1.21-1.9l-.05-71.89-39.4-.06c-.15.61.44.76.68.72ZM388.22,340.33c-.82,2.48-.36,5.11-.37,7.65l-.02,9.28.03.62.02,1.12c-1.2,1.08-.3,2.72.11,4.16l-.18,4.54c-.18.26-.56.64-.6.99-.07.55.25,1.05.62,1.41l.28,24.33c-2.18,2.5,1.47,6.22-2.47,8.36l-15.47,8.42,19.42.07,35.93.07c.41-.55-.01-1.24-.57-1.18l-14.53-28.94-5.65-11.52,21.41-40.43-36.36-.03-1.61,11.08Z"/>
  <path class="cls-3" d="M.53,228.86c-.22-.19-.49-.61-.49-1.19l-.04-11.54c3.15-.27,6.21.85,9.48,1.37,3.62.58,7.17.65,10.41,2.3-2.22.18-4.12-.57-5.8.94l1.67,5.92c-5.25-1.38-9.69-2.59-15.52-3.3.82,2.14.2,3.83.29,5.49Z"/>
  <path class="cls-4" d="M.06,203.78l.93-11.21.27,2.58,23.79,1.25-1.35,5.72-23.13-1.56c.13,1.09.3,2.41-.52,3.22Z"/>
  <g>
    <path class="cls-16" d="M213.22,109c-1.82,2.47-3.94,7.43-5.7,11.72l12.89-7.58,11.36-5.94c.05.6.54,1.67.08,2.03l-1.56,1.24c-.44.35.54,1.69,1.37,1.95,1.25-1.07,2.64-2.17,4.45-3.03,1.19,1.89,0,3.36-.44,4.86-1.24,4.16-5.93,5.54-7.38,10.61,2.01-.82,3.21-2.09,5-2.26,2.56-.25,3.57-2.13,5.15-3.66,2.05-1.97,8.52,1.31,11.88-.32,1.05-.51,1.47-1.68,3.3-1.49.43.04.72-1.3.89-1.83,3.12,4.65,7.15,7.98,11.76,11.91-5.78,6.72-11.6,13.13-18.67,18.37-6.45,4.78-15.32,5.94-22.72,3.25l-10.55-5.33-6.27-4.69-7.31-5.54c-5.69-4.31-10.4-9.65-15.24-14.89l-6.18-6.69c-3.26-3.53-6.37-7.17-10.22-10.1l-6.01-3c5.99-1.59,10.79-4.81,15.14-9.02l10.62-10.28c2.04-1.98,4.35-2.91,7.2-3.37l6.98-1.12c3.71-2.8,6.22-6.64,8.97-10.07l.76,3.02c.11.8,1.52,1.15,1.77,1.64.49.95-1.09,3.45.43,4.07.35.14.92-.85,1.31-.96,2.52-.74,3.82-1.66,5.66-3.7l-1.93,6.3-2.15,7.09-2.56,6-2.69,19.5c-.04.29-.61,1.06-.04,1.27.18.07.52-.04.65.04ZM206.24,121.53h-.38s.38.02.38.02h.77s-.38-.02-.38-.02h-.39Z"/>
    <path class="cls-4" d="M345.87,87.51l-4.19,14.28c-.66,2.25-1.82,4.96-1.69,7.25,1.14,3.19,7.02,7.56,5.11,9.62l-12.83,13.83c-5.42,5.84,2.92,14.04-2.13,16.52-1.88.92-2.93,2.48-4.4,3.79-3.7,3.29-8.05,5.54-12.29,8.05-1.09.64-2.24.44-2.99-.24-.45-.41.16-2-.23-2.47-2.36-2.06-1.94-6.14-4.32-10.35l-3.04,5.37c-.83,1.46-.93,2.53-.93,4.06-.27.91-2.27,1.99-1.7,3.55.13.35.85.93.68,1.26l-.89,1.69c-.42.8-1.01,1.7-1.86,1.5-.56-.13-1.46-.87-1.92-1.48-.29-.38.53-1.24.8-1.8l-3.78-6.27c1.02.08,1.73-.05,1.96-.39.41-.62-.5-.96-.66-1.31l-4.54-9.92c-3.24,3.29-3.44,8.41-6.35,12.31.93.38,1.35.55,1.96,1.03l-3.72,7.43c.81.19,1.15-.17,1.91-.4-.81,2.5-2,4.67-3.83,6.21-.66-.43-1.22-.99-1.34-1.45-.09-.37.66-.98.68-1.44.06-1.42-1.76-2.51-1.73-3.79l.08-2.87c-1.09-2.23-2.08-4.17-3.64-6.01-1.67,2.03-3.46,4.05-3.46,6.33,0,1.65.69,3.08-1.08,4.45-.36.28-.93,1.16-.72,1.46l.79,1.14c-.03,1.44-1.16,2.71-2.1,3.82h1.97c-1.24,2.56-2.96,3.84-5.31,4.81-2.35-3.21-5.27-5.29-8.89-6.38l-11.54-3.48c-3.24-.98-6.45-1.56-9.27-4.22,3.28-2.24,6.5-3.88,9.86-5.03,14.06-4.82,26.26-19.38,37.7-25.63,7.36-4.03,17.88-2.08,22.14-6.38l11.62-11.72c6.53-6.59,12.58-13.24,18.14-20.71l6-6.82c1.76-2,3.92-3.87,5.37-5.6.59-.08,1.18.09,1.31.41.12.3.15.91.08,1.34l-.78,4.66ZM325.9,115.44l-.29.29.29.29.29-.29-.29-.29ZM296.51,146.89l8.99-3.36c4.66-1.99,9.57-4.58,12.32-9.09,3.43-5.61,5.56-11.61,8-17.83l-6.74,6.87c-5.86,9.38-16.8,13.07-22.57,23.41ZM295.77,147.69h-.38s.38.02.38.02h.77s-.38-.02-.38-.02h-.39Z"/>
    <path class="cls-3" d="M.02,211.24l.15-6.17,13.27,1.18,9.37,1.22c.11,2.28.04,4.43-.77,6.86-7.54-1.3-14.71-2.34-22.01-3.08Z"/>
    <path class="cls-2" d="M136.67,121.82l.04.28.25.31.37-.29-.37-.29h-.3s.02-1.94.02-1.94c1.07,2.08,2.09,4.72,3.58,6.59,3.9,4.88,9.6,7.84,14.84,11.2l15.11,9.71.21-.94-4.69-4.29-17.04-17.08c1.23-.44,2.37,1.25,3.45,1.56,2.51.73,4.5,1,6.34,3.14,3.03,3.53,7.17,5.28,8.98,8.5l5.54,2.95c2.23,1.19,4.86,3.86,11.17,6.57,5.46,2.35,7.34,5.67,10.72,4.8,1.76-.45,2.86.79,4.13,1.6,1.58,1.01,10.03,3.3,13.31,3.09-1.81,2.21-5.2,3.7-6.05,6.69-.64,2.24.64,5.22,2.44,6.64,5.67,4.46,13.28,5.36,19.67,9.37-.49,1.19-1.83,2.22-3.26,2.46-5.55.93-11.41,1.94-16.95.98-5.16-.89-9.97-2.07-14.12-5.06.09-4.64-1.46-9.16-4.27-12.74l-2.85,8.23c-.12.45.47,1.86-.09,2.24-.32.21-.67.93-1.14.43-1.26-1.36-2.58-2.21-2.96-4.11.73.26,1.26.69,2.34.39l-3.98-6.59c.85-.02,1.55-.56,1.52-1.05-.03-.42-.44-.96-.65-1.4l-3.91-8.22c-1.52,4.06-2.8,7.15-4.9,10.44.67.63,1.26.73,1.83.87-1.03,1.68-1.7,2.97-3.12,4.28-.31-1.46-1.15-2.39-2.33-2.88.17-.67-.11-1.06.08-1.06l1.62-.02c.28-1.4-1.25-2.36-1.8-3.58-1.19-2.64-1.23-5.7-3.53-7.71l-4.06,8.06c.84.58.78,1.14.7,1.51-.58,2.59-5.79-.88-6.57-4.73l1.95.44c.28.06.37-1.14.12-1.27l-.84-.44-2.38-4.04c-.33-.56-.67-1.15-.32-1.56.24-.28.57-.49,1.23-.81l-4.56-9c-1.29,4.3-3.68,7.1-4.39,10.04l1.2-.22c1.37-.26-1.44,1.76-2.62,4.68-3.36-1.92-7-3.59-8.86-6.82l-12.3-21.46-4.02-2.95c-2.65-1.95-5.21-3.55-7.66-5.74l-21.24,16.06,14.9-20.22c2.53-3.43,6.89-7.48,8.63-11.6,1.11.19,2.02.79,2.94,1.84l3.24,3.67,3.39,3.04,9.01,6.69c1.09.81,2.18,1.09,3.3.74Z"/>
    <polygon class="cls-4" points="136.67 121.82 136.97 121.83 137.34 122.12 136.97 122.41 136.72 122.1 136.67 121.82"/>
    <path class="cls-4" d="M114.09,75.78c1.98,3.77,5.63,6.25,8.71,9.34l7.84,7.88c4.76,4.78,8.57,10.35,13.92,14.55,3.53,2.77,8.08,3.06,12.33,4.14,4.88,1.24,8.44,4.73,12.04,8.12,5.39,5.08,10.53,9.89,16.3,14.5,3.75,3,6.96,5.92,11.64,7.66.79.29,1.52,1.71,2.68,1.32.41-.14,1.06.41,1.48.78,3.93,3.46,8.11,6.13,12.42,8.61.73,1.51.71,3.17-.21,4.58l-.93.06c-3.28.21-11.73-2.07-13.31-3.09-1.27-.82-2.38-2.06-4.13-1.6-3.38.87-5.26-2.45-10.72-4.8-6.31-2.71-8.94-5.39-11.17-6.57l-5.54-2.95c-1.81-3.22-5.95-4.97-8.98-8.5-1.84-2.14-3.83-2.42-6.34-3.14-1.08-.31-2.22-2-3.45-1.56-5.67-5.69-9.17-10.99-13.68-14.9l-5.98-5.2,7.66,14.92-.02,1.92c-1.12.34-2.21.07-3.3-.74l-9.01-6.69-3.39-3.04-3.24-3.67c-.92-1.04-1.83-1.65-2.94-1.84-1.35-3.2-3.44-6.47-5.31-9.44.46-.28.65-1.02.43-1.59-.14-.36-.74-.46-1.06-.37l-.08-6.9c.85.2,1.18-.16,1.22-.89s.05-1.35-.77-1.49c.23-.4.08-1.21.11-1.66.35,0,.48-.31.48-.64v-1.66c0-.6-.04-1.83.29-2.44.22-.41,1.47-.37,1.8-1l.84-1.64c.16-.31.79-.31,1.33-.35Z"/>
    <path class="cls-3" d="M213.22,109c-.12-.08-.47.03-.65-.04-.57-.21,0-.98.04-1.27l2.69-19.5,2.56-6,2.15-7.09,1.93-6.3c-1.85,2.04-3.14,2.96-5.66,3.7-.39.11-.96,1.1-1.31.96-1.52-.62.06-3.11-.43-4.07-.25-.49-1.66-.84-1.77-1.64l-.76-3.02,4.92-6.15c2.97-3.71,6.34-5.97,9.68-9.05,5.25-4.84,7.42-12.16,9.73-18.46.27,0,.93.35.94.7.06,7.39,1.58,14.14,3.23,21.6-3.93.46-7.26,5.56-5.62,9.25l5.73,12.88c.38.86-.08,1.9-.68,2.52l-10.25,10.63-8.99,10.22-7.48,10.13Z"/>
    <path class="cls-3" d="M48.74,180.03l-.32.53c-1.77-.11-2.29,1.7-2.31,3.25-2.54,3.57-9.6,3.76-12.33-.2-2.13-3.09.17-7.22,2.3-9.31,1.61-1.58,2.65-2.88,3.68-4.8l-6.86,4.27c-.42-3.04.18-5.91-1.27-8.54-1.14,4.65-1.24,8.91-1.62,13.55-1.62-.34-2.31-1.84-3.49-2.54-2.31-1.39-4.06-2.83-5.69-4.67-.05-1.51-.03-2.93-1.05-4.41l-3.15.87c-1.36-2.11-2.33-4.79-1.91-7.23,1.07-1.95,4.29-1.37,6.01-1.85.41-2.39.5-4.73,1.98-6.38.09.28,0,.73.08.91.1.21.61.32.79.21.28-.17,3.31-5.87,11.39-2.23,3.19,1.44,3.99,5.42,5.59,7.77,2.83,1.03,6.28,1.48,7.87,4.31,1.8,3.19,1.64,6.59-.22,9.95-.38.69-.33,1.74-1.65,1.54,1.44,1.88,1.54,3.38,2.2,4.99Z"/>
    <path class="cls-16" d="M82.64,162.85c-5.55-9.52-18.27-9.47-27.07-2.43-1.84-4.03-5.43-5.33-8.95-7.41-1.55-1.72-2.44-5.25-4.97-6.62l3.31-5.98-2.13-1.15c2.56-3.13,3.37-6.32,4.89-10.31,1.51,4.02,2.5,7.25,5.18,10.17l-2.09.28c.13,2.17,2.07,3.93,2.39,5.95.23,1.44-.89,5.15,1.57,5.26,1.83-.04,3.29-3.92,3.17-5.37-.84.41-1.95.47-2.2-.1,1.31-2.81,3.42-5.04,4.15-8.29-1.16.13-2.13.96-3.63.52,2.81-4.09,5.5-7.71,6.88-12.76l5.68,12.74c-1.06-.29-2.33-.45-2.45.09l4.75,8.8-3.24-.46,5.67,9.02c.35.55,1.55-.48,1.81-.98.27-.54-.1-1.15-.64-1.8l3.3-6.16c-.53-.32-1.27-.02-1.6.16-.29.16-.69-.63-.31-1.06,2.24-2.61,3.15-5.64,4.66-9.03,1.7,2.87,2.07,5.5,3.79,7.85.28.37.77.7.83,1.18.06.45-.6.89-1.53,1.02.96,1.86,2.43,3.87,2.85,5.94-.43.57-1.37,1.43-.98,1.96l1.78,2.38c-1.47,2.02-3.59,3.96-4.86,6.62Z"/>
    <path class="cls-8" d="M236.35,31.07c-2.31,6.3-4.49,13.62-9.73,18.46-3.34,3.08-6.71,5.35-9.68,9.05l-4.92,6.15c-2.75,3.43-5.26,7.27-8.97,10.07l-6.98,1.12c-2.85.46-5.15,1.39-7.2,3.37l-10.62,10.28c-4.35,4.21-9.15,7.43-15.14,9.02l-2.54-.77c5.86-4.96,12.07-9.26,17.31-15l11.4-12.48c3.36-3.68,11.14-.5,17.47-8.71l7.82-10.14c3.02-3.92,6.41-6.99,9.99-10.41l10.35-9.89.99-.25c.1.07.26.13.46.13Z"/>
    <path class="cls-9" d="M347.06,78.75l-1.81,2.36c-1.45,1.73-3.61,3.6-5.37,5.6l-6,6.82c-5.56,7.47-11.61,14.12-18.14,20.71l-11.62,11.72c-4.26,4.3-14.78,2.35-22.14,6.38-11.43,6.25-23.64,20.81-37.7,25.63,4.99-2.97,9.65-6.16,13.92-10.58,6.61-6.83,12.9-13.72,20.45-19.55,8.83-6.81,15.91-3.51,20.38-5.43,4.1-1.76,6.89-5.88,9.92-9.01l8.62-8.93,11.6-11.59c5.5-5.5,11.28-10.41,17.88-14.11Z"/>
    <path class="cls-9" d="M199.55,143.28c-1.16.39-1.89-1.02-2.68-1.32-4.69-1.74-7.89-4.66-11.64-7.66-5.77-4.61-10.91-9.42-16.3-14.5-3.6-3.39-7.16-6.89-12.04-8.12-4.24-1.08-8.8-1.37-12.33-4.14-5.35-4.19-9.16-9.76-13.92-14.55l-7.84-7.88c-3.08-3.09-6.72-5.58-8.71-9.34-.81-1.54-1.51-3.38-1.74-5.26,11.06,8.05,21.03,17.44,30.87,27.27,3.78,3.77,8.09,6.1,13.31,7.07,5.98,1.12,10.68,4.29,14.01,9.24l5.8,6.44c7.05,7.83,15.36,16.36,23.22,22.73Z"/>
    <path class="cls-1" d="M80.97,190.57c-2.79,2.61-7.87,2.98-10.61.1.18-.06.16-.73-.24-.85l-.23-1.22c.46-.23.54-.82.41-1.34l6.71-7.72c-2.88.91-4.79,2.62-7.19,4.1l-1.4-8.54c-1.27,3.77-1.15,7.41-1.84,11.62l-5.95-6.58,3.1,8.13c.03.95-.44,1.54-1.16,1.66l-1.91.32c-2.18.37-3.46-2.99-4.89-4.12-1.7-1.34-1.83-2.05-1.71-4.13.13-2.21,2.8-3.6,2.85-6.11,1.19-2.17.88-7.92,2.47-9.24l3.19-2.65c3.19-2.64,8.63-1.79,11.62,2.08,1.93,2.5,2.37,5.29,2.05,8.62,5.16,2.39,6.35,9.02,2.99,13.4l1.74,2.47Z"/>
    <path class="cls-4" d="M338.83,168.16c-1.88-1.49-4.4-3.76-5.11-5.77-1.01-2.88,5.63-7.92,7.7-7.77,1.44.1,1.98,1.47,2.97,2.43l6.86,6.65,13.51-13.75,7.32-7.68c-2.34-2.93-4.64-5.2-7.5-7.08-1.42.79-3.46,2.48-3.51,3.96-.09,2.72,3.07,2.01,4.37,2.07,2,1.3-.21,3.77-1.76,4.43-2.01.86-3.3-.08-4.87-1.88-1.3-1.49-3.15-2.68-3.82-4.72l5.89-6.43c.95-1.03,2.91-3.04,4.56-2.36,4.16,3.16,7.75,6.97,11.02,11.05.9,1.12.47,2.76-.42,3.66l-13.82,14.05-9.32,9.32-12.2,11.75c-1.53-.58-2.65-1.65-3.36-3.16l9.96-10.05-4.96-6.01c-.82-.99-1.93-1.16-2.78-.43-2.54,2.16,2.39,3.97,2.34,6.1-.02.8-2.13,2.36-3.09,1.6Z"/>
    <path class="cls-3" d="M102.14,263.34l-10.23-7.38c.67-.81,1.28-1.07,1.74-1.36,2.25-1.41-3.46-6.6-11.71-3.11-1.09.46-3.24,1.58-4.24.87-1.19-1.22-1.47-3.63-1.67-5.25-.43-3.45-1.84-6.01-3.34-8.95s-3.7-5.15-7.12-6.13c2.27-1.09,3.7.88,5.37,1.33,3.28.89,5.78,2.22,8.81,3.59,11.48,5.16,22.34,11.05,32.4,18.66,1.27.96,2.18,2.02,3.29,3.37l-10.05,4.76c-1.28.61-2.19.39-3.26-.38Z"/>
    <path class="cls-4" d="M423.42,156.03c.93-.95,1.93-1.29,2.97-1.07,1.14.24,6.04,4.71,6.15,6.56.16,2.56-2.43,5.56-4.56,6.57-.92.44-2.16-.76-2.3-1.4-.42-1.92,2.77-3.73,1.97-5.31-.36-.72-2-2.19-2.72-1.32l-5.35,6.43,4.02,4.45c.42.46,1.27.68,1.39,1.28.28,1.37-1.45,3.7-2.59,3.69-.94,0-1.36-1.1-2.07-1.76l-6.05-5.61-15.2-14.96-5.3-5.79c-1.49-1.62-3.31-3.05-4.4-5.15,2.55-4.26,6.09-7.4,9.63-10.77,1.72-1.64,3.95-2.03,5.78-.21l5.78,5.74c2.11,2.09-1.97,7.43-5.83,8.89l-3.62-2.88c-.72-.57-.78-1.7-.3-2.39.54-.78,1.54-.32,2.47.16,1.22.64,2.01-.71,2.37-1.43,1.18-2.38-3.04-4.97-3.89-4.48-2.83,1.63-5.58,4.51-6.94,7.58-.34,1.49,2.13,2.46,2.94,3.27l17.93,17.82,7.71-7.9Z"/>
    <path class="cls-3" d="M85.04,225.52l-.67-.2.08-.52c.28.2.46.4.59.72Z"/>
    <path class="cls-3" d="M83.49,224.03c-.38.21-.38.99,0,1.22.2.12.63.07.87.07.05,1.72.57,3.28,2.53,3.9,4.8,1.5,9.5,2.89,14.25,4.98,11.18,4.91,21.46,11.07,31.34,17.71l.07,1.01c-2.48,1.66-5.55,2.23-8.65,2.9-11.34-9.07-23.27-16.43-36.62-21.8l-17.1-6.87c.75-2.52,1.09-4.65,1.3-7.21l9.88,2.57c1.06.28,1.65.55,2.11,1.52Z"/>
    <path class="cls-8" d="M205.33,238.92c-.79-.33-1.95-.74-2.85-1.49-2.96-2.46-6.32-3.69-9.6-5.57-9.69-5.55-19.63-9.47-30-13.68-13.96-5.67-27.99-10.12-42.53-13.46.22-.7-.12-2.15.54-2.84l19.77,4.98c13.79,3.47,26.69,8.5,39.65,14.25,7.24,3.21,14.32,5.8,21.13,9.76,2.94,1.71,6,3.11,8.03,6.04-1.19,1.19-2.71,1.63-4.13,2.02Z"/>
    <path class="cls-4" d="M371.38,206.5c.65-2.89-.02-5.86-2.59-7.57-1.81,10.41-2.65,20.14-2.57,30.62-1.95-.87-3.14-2.37-4.64-3.72l.55-12.69c.22-5.06.96-9.65,2.48-14.48-.6-1.31-2.7-2.01-4.34-2.61.88-2.5,3.07-4.45,5.27-5.89l4.65,4.5c3.44,2.4,5.78,5.29,8.48,8.49,1.77,2.1,3.66,4.99,1.58,7.6l-10.01,12.58c-.33-5.84-.11-11.23,1.14-16.82Z"/>
    <path class="cls-16" d="M373.71,166.76l-7.73,7.55c-1.78-2.28-3.41-3.85-5.6-5.63,1.7-2.4,3.59-4.26,5.77-6.21l.55,6.15c4.64-1.2-.98-8.81,5.88-11.39.05,1.89-.25,3.92.63,5.2,1,.22,1.89-1.2,1.89-2.19l.03-5.83c0-1.34,2-2.18,3.27-2.42l.07,4.08c1.31-.09,2.29-.63,2.64-1.26.89-1.61-.63-5.37.88-6.38.67-.45,2.34-.57,3.15.08,1.42,1.14-.15,4.31.66,6.34.27.68,1.45,1.7,2.43,1.07l.88-3.85c4.71,2.63,1.03,6.85,4.63,10.81.95-2.06.48-3.7.73-5.56,6.73,2.84.89,10.39,5.99,11.01l.58-5.19c2.24,1.41,3.4,2.8,5.15,4.74-1.74,2.35-3.15,4.72-5.65,6.42l-16.94-16.76-9.91,9.22Z"/>
    <path class="cls-9" d="M291.43,185.32c-1.22,3.83,4.24,2.8,4.36,5.18.06,1.17.59,1.68,1.28,2,.51.24,2.26.1,2.05-.75-1.65-6.67,2.35-10.7,8.61-13.49-.49-1.03-1.27-1.59-1.97-1.95-.66-.33-1.9-.13-2.58.48l-4.48,4.02c-2.18-1.89-4.71-2.67-7.67-3.71,3.31-6.61,14.48-6.85,19.38-.71,3.37,4.22,3.67,10.13.53,14.44-2.67,3.66-6.46,5.46-10.64,5.43s-7.95-1.79-10.7-5.43c-2.53-3.34-2.47-8.59-.11-12.41,3.5,2.74,7.27,3.34,7.58,4.84.19.9,0,2.4-1.18,2.56s-3.51-1-4.48-.49ZM309.13,183.72c-2.55-.58-3.81,2.2-6.43-.4-1.64.76-1.92,4.06-1.15,5.84.72,1.67,2.68,2.98,4.89,2.51l-1.26-4.09c2.12-.37,4.42-2.04,3.94-3.85Z"/>
    <path class="cls-3" d="M157.69,246.97l-.2,1.3-8.91,1.39-16-10.88c-10.63-5.96-22.11-10.98-33.43-15.44l3.86-4.67c-.07,2.01,1.64,2.24,3.16,2.76l9.62,3.31,5.97,2.79c11.76,4.72,22.72,10.63,33.07,17.92,1.05.74,1.57,1.58,2.85,1.51Z"/>
    <path class="cls-1" d="M32.22,267.5l-.28,3.17.05,50.84c-.83.16-1.9.25-2.41.15-.47-.1-.93-.98-.93-1.81v-36.3c-9.54-5.55-7.95-15.81-14.81-21.22,2.77-.3,5.25.66,7.31,3,5.44,6.2,4.59,13.94,7.01,12.12.02.38.94.73.96.35l.78-12.84,1.48-2.59c.08.51-.04,1.09.37,1.9.93-1.39,2.02-2.93,2.51-4.75l3.19-11.82c.75-2.77,1.69-5.15,3.87-6.79.44,1.14-.93,2.45-1,3.56-.17,2.61-.5,4.61-1.1,7.09l-1.01,4.15c-.64,2.66-1.45,4.69-3.52,6.65l-1.28,2.57c-1.04.83-1.12,1.63-1.21,2.57Z"/>
    <path class="cls-1" d="M205.33,238.92l-7.49,2.09-9.61-6.26c-13.5-7.76-27.16-14.75-42-19.56l-26.42-8.56c-.75-.24.41-1.51.53-1.91,14.54,3.34,28.57,7.79,42.53,13.46,10.36,4.21,20.31,8.12,30,13.68,3.28,1.88,6.65,3.11,9.6,5.57.91.75,2.06,1.16,2.85,1.49Z"/>
    <path class="cls-1" d="M113.67,212.29c-.27.27-.16.57.05.62,20.24,4.89,51.41,18.71,68.54,30.79.85.6,2.54.17,3.16.38l-11.38,1.69-11.04-7.91c-17.65-10.79-36.56-18.59-56.24-24.44,2.68-.45,4.65-.06,6.9-1.12Z"/>
    <path class="cls-1" d="M47.47,268.71c-.19-.1-.82.25-.86.47.04-.24,3.69,4.85,4.51,6.76l4.71,11.05,3.41,13.37c.64,2.52,1.67,5.22,4.08,5.84.67.18,1.24.14,1.83,0,.82-.19,1.76-.04,3.11.03l3.19-7.8c1.63-3.99,2.37-8.43,4.93-11.84,2.17-2.88,5.52-5.06,8.59-3.95-1.84.09-3.69,1.26-4.64,3.17-4.27,8.6-3.15,17.16-10.39,23.25-3.14,2.65-6.73,2.39-9.75-.34-6.41-5.79-9.82-14.03-9.79-22.71.02-5.65-1.47-14.51-5.11-15.54-1.21-.34-2.72-.11-3.84.84l-5.38,4.56c2.49-5.61,6.91-10,11.41-7.16Z"/>
    <path class="cls-8" d="M185.42,244.08c-.63-.21-2.31.23-3.16-.38-17.14-12.08-48.3-25.9-68.54-30.79-.2-.05-.32-.36-.05-.62.77-.27,2.05-1.62,3.19-1.33,13.58,3.46,26.31,8.01,39.25,13.59,11.62,5.01,22.1,11.45,33.08,18.28-1,1.19-2.44,1.05-3.77,1.25Z"/>
    <path class="cls-10" d="M323.28,217.72l3.21,7.82,4.05-7.81c-.51.56-.52,2.26-.6,3.13,2.04-.58,2.57-2.14,3.69-3.23,3.57-3.49,7.11-6.3,12.42-7.6.36-.82.02.17.27,1.04-11.39,4.47-17.32,11.42-18.43,23.64-.6-.23-1.52.14-2.3-.71-.77-11.41-6.47-17.14-16.25-21.99l-.46.41,4.79,4.33c-.4,1.61.24,2.92,1.02,4.36-1.32.34-3.01.56-4.03-.09l-6-3.82c-1.37-.87-1.81-2.63-3.24-3.86l-2.35-4.5c-.29-.55-.99-.5-1.45-.39-.34-.94-.7-1.81-1.03-2.85,10.58-.71,20.86,4.25,26.22,13.83.72-.45.48-1.23.46-1.69ZM307.76,211.61c.88,1.03,1.21.16.8-.25l-.8.25Z"/>
    <path class="cls-3" d="M254.52,115.29c-.17.53-.46,1.88-.89,1.83-1.83-.18-2.24.98-3.3,1.49-3.37,1.63-9.84-1.65-11.88.32-1.59,1.53-2.59,3.41-5.15,3.66-1.79.18-3,1.44-5,2.26,1.45-5.07,6.14-6.45,7.38-10.61.45-1.5,1.64-2.97.44-4.86-1.82.86-3.2,1.96-4.45,3.03-.83-.27-1.81-1.6-1.37-1.95l1.56-1.24c.45-.36-.03-1.43-.08-2.03l9.98-5.28c5.4,3.73,9.4,8.33,12.77,13.36Z"/>
    <path class="cls-2" d="M112.35,70.52c.23,1.88.93,3.72,1.74,5.26-.54.05-1.17.04-1.33.35l-.84,1.64c-.33.63-1.57.59-1.8,1-.33.61-.3,1.84-.3,2.44-1.03-.09-1.6.73-2.37,1.52-4.4,4.48-8.85,8.58-14.08,12.05l-13.28,8.82-7.46,4.31c1.77-2.43,3.53-4.27,5.59-6.15l5.51-5.03c8.12-7.4,16.64-17.86,26.97-25.93l.78-.61c.21-.16.59.12.87.33Z"/>
    <path class="cls-1" d="M91.52,161.36c-1.03,3.3,3.7,1.36,6.66,4.79,1.54,1.79,4.61.41,6.57,3.67,1.57,2.61-.16,5-1.23,7.74-1.17.36-1.49,1.69-1.56,3.2.04,1.25-1.56,1.38-1.4.04-.4-1.24-1.69-1.21-2.49-.85-.68.3-1.06.85-1.18,1.54-1.2-1.7-1.7-3.43-3.16-3.95l-3.76-1.36c-1.21-1-2.06-2.09-3.62-1.89-.9-1.42-2.09-2.76-2.06-4.43.03-1.76,2.04-2.6,2.68-3.89,1.11-2.25,1.3-4.2,3.24-5.46.07.35.14.75.31.85s.89.1,1,0Z"/>
    <path class="cls-1" d="M151.85,179.96c-.52-.28-1.76-.06-2.03.71.01,2.93,3.92,5.21,2.43,7.4-.67.98-.07,1.57.56,2.52l4.84,7.31-9.33.09c-.02-.34-.09-.68-.42-.98-.73.48-1.33.66-1.96.78l-.56.11c-2.14-.73-4.84-.75-6.97.02-.4,0-1.31.21-1.44-.3-.18-.68.48-.97.78-1.48l4.8-7.93c-1.1-.37-1.97-.14-2.86-.11l4.17-8.51c-1.1-2.37,2.06-3.18,2.38-6.23,2.3,2.52,3.34,5.42,5.62,6.59Z"/>
    <path class="cls-1" d="M352.94,213.29c-3.51,7.01-11.04,11.23-19.06,9.93,3.08-5.63,8.32-8.35,12.44-12.15-.25-.88.09-1.86-.27-1.04-5.31,1.3-8.85,4.11-12.42,7.6-1.12,1.09-1.65,2.65-3.69,3.23.08-.87.09-2.57.6-3.13,2.6-2.86,5.37-6.94,8.38-9.12,4.24-3.07,8.91-3.89,13.6-3.79.46-.63,1.35-1.18,1.87-1.02,2.68.84-1.39,5.97-1.45,9.5Z"/>
    <path class="cls-10" d="M158.03,242.36c-.4,1.92,1.46,2.87,3.47,3.76-1.15,1.39-2.7.79-3.8.85-1.28.07-1.8-.77-2.85-1.51-10.36-7.29-21.31-13.2-33.07-17.92l-5.97-2.79-9.62-3.31c-1.52-.52-3.24-.75-3.16-2.76.73-.89,1.48-1.14,2.66-.71l23.06,8.39c10.58,3.85,19.92,9.93,29.3,16.01Z"/>
    <path class="cls-16" d="M20.83,171.56c.24,6.73,8.79,9.12,8.34,12.7-.3,2.44-7.69,4.4-11.98.67-3.73-2.56-5.38-6.84-3.87-11.18-3.65-4.02-2.86-10.15,1.39-12.96-.41,2.43.55,5.12,1.91,7.23l3.15-.87c1.02,1.47,1,2.9,1.05,4.41Z"/>
    <path class="cls-1" d="M84.45,224.8l-.08.52c-.24,0-.68.05-.87-.07-.39-.23-.38-1.01,0-1.22.15.3.71.59.96.77Z"/>
    <path class="cls-1" d="M129.9,245.11c-.55-.12-1.04-.19-1.41.34.87.37,1.43.19,2.04.21l.42.31c.12,2.46,3.94,2.79,4.85,5.05-1.42.21-2.67-.03-3.31.89-9.88-6.65-20.16-12.8-31.34-17.71-4.76-2.09-9.46-3.49-14.25-4.98-1.96-.61-2.48-2.17-2.53-3.9l.67.2c2.77,2.06,6.27,2.65,9.78,1.57l19.6,8.82c5.6,2.52,10.95,5.18,15.48,9.2Z"/>
    <path class="cls-3" d="M307.78,228.33c-8.64,4.48-16.42,9.54-24.69,15.07.44-3.33.63-6.19-.57-9.38,5.98-4.13,12.11-7.3,18.61-10.63,2.03,2.07,3.86,3.13,6.65,4.94Z"/>
    <path class="cls-3" d="M394.05,123.03c1.15-.42,3.32,1.66,3.21,3.13-.06.78-.8,1.3-1.47,1.93l-12.69,12.01-14.46-14.49c.37-1.55,2.78-3.36,3.74-2.44l11,10.55c4.67-2.95,9.01-10.09,10.67-10.7Z"/>
    <path class="cls-9" d="M394.23,181.91l-2.34-2.58,1.48-2.29-10.04-9.21-12.07,11.87c-.68.67-3.42-1.75-2.7-2.55l12.72-12.32c.56-.54,2.28-1.89,2.96-1.2l13.52,13.63c.98,1.9-2.34,3.59-3.53,4.66Z"/>
    <path class="cls-9" d="M398.65,187.39l-14.28,14.18c-5.68-4.52-10.78-9.01-15.45-14.27-.53-1.1,1.71-3.14,2.64-2.26l12.04,11.38,10.71-9.91c.67-.62,1.62-.87,2.4-.79.67.07,1.81.68,1.93,1.66Z"/>
    <path class="cls-8" d="M80.97,190.57l-1.74-2.47c3.35-4.39,2.17-11.01-2.99-13.4.32-3.33-.12-6.12-2.05-8.62-2.99-3.87-8.43-4.72-11.62-2.08l-.35-1.09c3.4-2.28,8.07-3.55,12.03-1.4s5.95,5.81,5.45,10.17c4.61,3.84,6.34,9.94,4.29,15.44-.6,1.63-1.95,2.45-3.02,3.45Z"/>
    <path class="cls-10" d="M58.28,315.25c-.07.43.05.87-.48,1.35-1.99-3.89-6.81-7.13-10.09-5.95-5.18,1.86-7.89,6.46-11.16,11.69-.58-4.82.68-9.69,2.67-13.72,2.46-4.98,8.56-4.92,12.5-1.88,3.14,2.43,5.71,4.82,6.56,8.51Z"/>
    <path class="cls-3" d="M386.12,125.09c-1.13,1.3-1.71,2.73-3.53,2.92l-7.35-8.33,7.14-6.8c3.26-.18,5.14,3.98,8.98,6.18l-5.24,6.03Z"/>
    <path class="cls-3" d="M164.58,201.73l-1.76-.54c.05-.52.08-1.88-.59-1.99l-4.17-.64,2.52-5.75c-.25-.4-1.01-.76-1.66-.9l2.88-4.51-1.91-1.01c1.94-2.36,2.89-4.59,3.99-7.41.88,2.54,2.4,4.69,2.72,6.99.11.81-1.02,2.15.38,3.28.41.33,1.12,1.72.95,2.05l-.87,1.75c1.24,2.12,2.75,3.63,3.46,6.17l-5.79.07c-.22.87-.15,1.6-.15,2.44Z"/>
    <path class="cls-2" d="M345.87,87.51l.78-4.66c.07-.43.04-1.04-.08-1.34-.13-.32-.72-.49-1.31-.41l1.81-2.36c.99-.55,1.83.07,2.7.89l8.96,8.51c3.02,2.87,6.03,5.56,8.23,8.85.09.13.23.17.32.23l.32.41c.05.06.28.23.85.43-.35.26-.42,1.02-1.1.29l-.22-.24c-.11-.12-.17-.27-.21-.43-.1-.09-.22-.14-.34-.19l-10.02-4.81-10.68-5.19Z"/>
    <path class="cls-1" d="M112.69,175.71c1.03,6-3.64,6.17-1.33,8.64,2.1,2.26,1.99,6.27-1.04,7.54-1.77.74-3.91.23-5.54.18-2.28-.91.93-4.94-1.68-6.3l-.05-1.06c.2.09.92-.26.88-.56l-.4-2.88c.79-.13,1.18-.66,1.62-1.44l3-5.22c.81-1.41,2.48-.09,4.54,1.09ZM105.67,190.71h-.38s.38.02.38.02h.77s-.38-.02-.38-.02h-.39Z"/>
    <path class="cls-8" d="M84.97,282.65c-3.07-1.11-6.42,1.06-8.59,3.95-2.56,3.41-3.3,7.84-4.93,11.84l-3.19,7.8c-1.35-.07-2.3-.22-3.11-.03l3.33-11.32c2.26-7.48,9.87-17.09,16.31-15.85,2.33.45,3.72,3.45,4.23,5.51-1.52-.84-2.68-1.41-4.05-1.9Z"/>
    <path class="cls-8" d="M48.74,180.03c-.66-1.6-.75-3.11-2.2-4.99,1.32.2,1.27-.85,1.65-1.54,1.85-3.36,2.01-6.75.22-9.95-1.59-2.82-5.04-3.28-7.87-4.31-1.6-2.35-2.4-6.33-5.59-7.77-8.08-3.64-11.12,2.06-11.39,2.23-.18.11-.69,0-.79-.21-.09-.18.01-.64-.08-.91,3.84-4.27,9.55-5.77,14.92-3.23,3.29,1.55,4.13,5.27,4.72,8.09,3.69.98,7.41,2.12,8.8,5.69,1.51,3.91.42,7.08-1.44,10.72-.85,1.65.04,4.54-.95,6.19Z"/>
    <path class="cls-8" d="M63.32,306.21c-2.4-.63-3.44-3.33-4.08-5.84l-3.41-13.37-4.71-11.05c-.82-1.92-4.46-7-4.51-6.76.04-.22.68-.57.86-.47,8.27,5.22,12.22,17.38,14.18,27.53l1.67,9.97Z"/>
    <path class="cls-3" d="M62.81,232.07c-3.12,1.17-5.23,3.79-7.06,7.52-3.08-3.68-6.3-6.27-11.03-7.28.1-2.72,1.02-4.86,1.66-7.41,5.44.23,9.31,5.96,16.42,7.18Z"/>
    <path class="cls-1" d="M81.51,260.86c-1.25,5.19-3.18,10.21-3.2,16.52-4.35,2.03-7.32,5.44-9.86,9.24l1.44-8.27c.36-.36.54-.79.63-1.25l.06-.3,4.26-8.71,5.21-6.93c.28-.38,1.14-.42,1.46-.3Z"/>
    <path class="cls-1" d="M263.08,217.15c.31-.07.54-.13.95-.02,7.87-4.23,15.88-7.59,24.38-10.47.87-.3,1.21-.48,1.31-1.17l1.54,3.75-15.62,6.88c-4.88,2.15-4.05,5.46-12.56,1.03Z"/>
    <path class="cls-3" d="M277.87,95.69c-2.72-1.34-4.88-3.53-6.99-5.75-2.38-2.51-3.47-5.93-4.95-8.98-1.99-4.09-5.51-6.51-8.17-10.5,4.42,1.27,7.44,3.85,11.18,5.79l8.93,19.44Z"/>
    <path class="cls-10" d="M356.39,192.77c-1.16-1.97-.94-3.93.13-5.95,1.24-1.03,2.89-2.56,3.71-4.24s-1.74-2.85-2.38-3.87c-.75-1.19-1.74-2.8-3.05-3.24-.62-.09-.81-.6-.62-1.02.42-.9,2-2.22,2.65-2.37s1.35.31,1.9.89l8.27,8.84-10.6,10.96Z"/>
    <path class="cls-2" d="M325.59,233.99c.78.86,1.71.48,2.3.71l7.52,2.93,3.98-3.2c1.38-1.11,3.16-1.86,4.87-.93-1.65,3.19-4.27,5.3-6.96,7.45-4.6-1.93-9.18-1.72-14.05-1.63l-8.5-1.07c3.59-3.52,7.75-2.6,10.82-4.27Z"/>
    <path class="cls-16" d="M354.79,175.47c1.31.44,2.31,2.04,3.05,3.24-.41,1.12-1.28,2.39-2.45,3.2-4.11,2.83-7.81,5.94-10.73,10.36-1.69-.7-2.47-2.41-2.53-3.83-.09-1.83,6.19-8.45,9.79-11.3.83-.66,1.23-2.2,2.86-1.66Z"/>
    <path class="cls-10" d="M289.72,205.49c-.1.69-.44.88-1.31,1.17-8.5,2.88-16.51,6.24-24.38,10.47-.41-.11-.64-.05-.95.02-1.02-.53-2.11-.58-3.2-1.6,5.95-3.79,26.85-12.28,28.6-11.63.51.19.88.69,1.24,1.56Z"/>
    <path class="cls-8" d="M112.69,175.71c-2.05-1.18-3.73-2.5-4.54-1.09l-3,5.22c-.45.78-.83,1.31-1.62,1.44-.17-1.24-.37-2.45-.02-3.72,1.07-2.74,2.8-5.13,1.23-7.74-1.96-3.26-5.03-1.89-6.57-3.67.32.06,1.33-.05,1.44-.44.09-.31-.75-.92-.85-1.27-.58-2.11-1.79-2.62-3.72-2.88-1.05-.14-2.83-1.42-3.53-.2-.11.1-.82.11-1,0s-.24-.51-.31-.85c1.76-1.14,3.88-1.96,6.16-.95,1.67.74,2.99,2.51,3.63,4.82,5.44-1,8.74,2.93,9.72,7.57,1.62.77,2.68,2.03,2.97,3.76Z"/>
    <path class="cls-3" d="M276.66,225.34l3.85-2.65,12.67-6.05c.76-.36,1.13-.61,1.08-1.33.46,1.24,1.71,2.82,3.01,4.3l-13.06,6.83c-1.32.69-2.69,2.79-4.39,2.3-1.6-.46-2.4-2.48-3.16-3.41Z"/>
    <path class="cls-4" d="M351.44,157.03c-1.18.4-8.01-4.17-6.11-8.04.69-1.41,2.55-2.65,3.69-3.62,1.91-1.63,3.79-.96,5.42.65,1.22,1.21,3.93,2.55,3.43,4.89-.55,2.58-3.76,5.22-6.43,6.13ZM353.73,150.81c0-1.32-1.07-2.39-2.39-2.39s-2.39,1.07-2.39,2.39,1.07,2.39,2.39,2.39,2.39-1.07,2.39-2.39Z"/>
    <path class="cls-4" d="M420.99,148.39c2.16,3.11-1.81,7.99-5.94,8.51-1.95-.79-5.52-3.13-5.89-5.71-.35-2.44,3.14-5.94,5.54-6.24s5.06,1.67,6.29,3.44ZM417.87,150.21c-.3-1.3-1.8-1.43-2.5-1.53-.88-.13-1.88.17-2.35,1.41s1.11,3.1,2.31,3,2.89-1.37,2.54-2.87Z"/>
    <path class="cls-16" d="M112.81,167.75c-1.22-2.72-3.61-5.3-6.27-7.01-.04-.81.66-1.79.86-2.28.2-.52-.26-1.35-1.07-1.94,1.56-2.81,2.77-5.33,3.76-8.71l4.03,8.47c-.33.61-1.05,1.21-.92,1.65.57,1.88,2.13,3.04,1.91,3.72-.23.73-1.36,1.03-2.58.62-.25,1.87.38,3.51.86,5.12.04.12.23.26.36.31.67.23.42,1.32-.32,1.01.1-.73-.37-.97-.64-.96Z"/>
    <path class="cls-1" d="M28.59,259.28l.04,1.17c.02.58-.66.31-.62.05.03-.21-.15-1.05-.35-1.12-9.02-3.13-6.95-12.61-9.99-20.07.22-.3.45-.75.98-.96,2.48,2.18,4.52,4.6,5.46,7.68l3.41,11.16c.27.87.33,1.57,1.07,2.1Z"/>
    <path class="cls-2" d="M70.12,189.82c.4.13.42.79.24.85-.32,0-.8.08-.99.29-.38.44.18,1.07.2,1.39l1.25,19.33c-1.9.32-3.65-.03-5.1-.73l1.11-14.71c.33-4.41.14-8.5,1.64-12.39,1.53,2.91-.11,5.4,1.66,5.96Z"/>
    <path class="cls-8" d="M43.55,239.66c-.8.43-1.52.73-2.22,1.26-2.18,1.63-3.12,4.01-3.87,6.79l-3.19,11.82c-.49,1.81-1.58,3.35-2.51,4.75-.42-.81-.29-1.39-.37-1.9l1.62-8.74c1.72-9.29,6.8-20.5,14.69-15.72-1.5,1.46-2.94,1.11-4.14,1.75Z"/>
    <path class="cls-8" d="M323.28,217.72c.01.47.25,1.25-.46,1.69-5.35-9.58-15.63-14.53-26.22-13.83l-.82-2.62c11.55-1.11,23.09,3.99,27.5,14.75Z"/>
    <path class="cls-10" d="M28.15,277.44c-2.42,1.82-1.57-5.92-7.01-12.12-2.06-2.35-4.54-3.3-7.31-3-1.79.2-3.39-.09-5.29,2.15-.14-1.58.41-3.13,1.7-3.99,4.1-2.72,9.73-1.54,12.55,2.55,3.02,4.39,4.41,9.42,5.35,14.41Z"/>
    <path class="cls-10" d="M409.2,177.97c-.93.93-2.65,2.26-2.79,3.68-.21,2.03,2.54,2.98,3.27,4.38.24,1.43-2.18,3.11-3.68,3.19-1.99-2.69-3.55-5.11-5.91-7.2l7.01-8.06c.91,1.31,2.09,2.32,2.1,4.01Z"/>
    <path class="cls-2" d="M34.39,204.31c-2.17.21-4.07-.39-6.08-.9l1.91-14.76c.23-1.81.35-3.52,1.94-4.65l.76,6.07c.58,4.64.46,8.98,1.47,14.25Z"/>
    <path class="cls-3" d="M103.51,177.56c-.35,1.26-.15,2.48.02,3.72l.4,2.88c.04.3-.67.65-.88.56.05-.31.21-.75-.01-1.31l-5.23,1.39c.24-.73.09-1.78-.31-2.52-1.23-2.25-3.28,1.55-5.06,1.25-5.08-1.65-2.51-3.59-6.08-9.25,1.56-.2,2.41.89,3.62,1.89l3.76,1.36c1.46.53,1.96,2.25,3.16,3.95.12-.69.51-1.24,1.18-1.54.79-.36,2.08-.39,2.49.85-.17,1.34,1.44,1.21,1.4-.04.07-1.51.39-2.83,1.56-3.2Z"/>
    <path class="cls-3" d="M58.28,315.25l1.54,6.62-5.58-.13c-2.22-2.4-3.19-5.3-4.74-8.18-.52-.96-1.88-1.63-1.8-2.92,3.28-1.18,8.1,2.06,10.09,5.95.53-.48.41-.92.48-1.35Z"/>
    <path class="cls-3" d="M48.99,219.37l-10.39-2.87-1.82-6.39,12.85,2.66c-.64,2.37-.87,4.06-.64,6.6Z"/>
    <path class="cls-1" d="M294.26,215.32c.05.72-.32.96-1.08,1.33l-12.67,6.05-3.85,2.65c-.67-.82-2.31-1.22-2.25-2.82l18.53-9.17c.7.39,1.14,1.5,1.32,1.97Z"/>
    <path class="cls-1" d="M38.67,296.84l.54-8.14c.22-3.35,2.67-9.66,5.4-9.22,4.66,6.93-3.53,10.71-5.94,17.37Z"/>
    <text/>
    <path class="cls-4" d="M54.82,204.72c-.85,4.53-9.31,3.16-13.22-2.31-1.01-1.41-1.47-2.92-1.03-4.52,5.7.72,7.64,6.81,14.25,6.84Z"/>
    <path class="cls-4" d="M88.93,207.87c-2.82,2.86-8.65,5.25-10.03,1.57,5.54-1.99,7.89-7.26,12.57-10.05,1.2,3.18-.25,6.15-2.54,8.47Z"/>
    <path class="cls-3" d="M56.91,175.89c-.05,2.5-2.72,3.9-2.85,6.11-.12,2.08,0,2.79,1.71,4.13,1.43,1.13,2.72,4.49,4.89,4.12l1.91-.32c.72-.12,1.19-.71,1.16-1.66.38,1.01,1.76,2.83.04,3.73-1.99,1.04-5.05.5-6.83-.83-5.57-4.18-6.22-12.32-.97-16.84l.91-4.26.02,5.84Z"/>
    <path class="cls-4" d="M97.19,220.39c-2.22,2.75-5.7,3.92-8.93,2.56,4.61-3.97,7.05-9.23,11.11-12.35.76,3.55.07,7.01-2.18,9.79Z"/>
    <path class="cls-4" d="M115.27,205.59c-4.7,4.77-14.05,2.65-14.02-1.29,4.67-2.18,9.25,1.58,14.95-2.35.18,1.33-.18,2.88-.93,3.64Z"/>
    <path class="cls-1" d="M313.67,216.73c2.16,1.95,4.66,3.64,6.01,7.09-10.98.77-18.62-5.76-22.06-15.39.46-.1,1.17-.16,1.45.39l2.35,4.5c1.42,1.23,1.87,2.99,3.24,3.86l6,3.82c1.02.65,2.71.43,4.03.09-.78-1.44-1.42-2.75-1.02-4.36Z"/>
    <path class="cls-4" d="M56.02,203.41c-5.19-.15-8.83-5.38-14.82-7.28,4.78-4.09,14.15.75,14.82,7.28Z"/>
    <path class="cls-4" d="M55.79,214.95c3.33,8.28,8.15,8.52,8.14,10.61,0,.42-.77,1.27-1.49,1.19-5.48-.58-9.83-5.89-9.21-11.42.1-.89.55-1.58,1.18-1.57.42,0,1.15.61,1.39,1.2Z"/>
    <path class="cls-8" d="M28.59,259.28c-.74-.53-.8-1.23-1.07-2.1l-3.41-11.16c-.94-3.08-2.98-5.51-5.46-7.68-.53.22-.76.66-.98.96-.87-2.14-2.89-3.18-4.98-4.46,3.4-.74,5.66,1.18,7.87,3.11,5.63,4.92,9.19,14.75,8.04,21.33Z"/>
    <path class="cls-4" d="M62.16,220.13l-7.16-7.97c5.95-2.31,13.12,5.52,11.37,11.89-1.4-2.12-2.99-2.56-4.21-3.92Z"/>
    <path class="cls-4" d="M85.01,202.12l-6.91,5.73c-.77-2.77.3-5.09,2.04-7.11,2.45-2.84,5.97-5.18,10.08-3.33-2.02,1.75-3.45,3.24-5.21,4.7Z"/>
    <path class="cls-4" d="M90.68,216.79l-3.61,4.12c-1.64-4.19.87-7.93,4.37-10.05,1.9-1.15,4.13-2.39,6.17-1.28.4.22-.32,1.46-.63,1.6-2.63,1.2-4.33,3.36-6.3,5.62Z"/>
    <path class="cls-3" d="M97.64,267.83c-1.71,2.16-3.53,3.23-5.79,4.75-.74-4.77-2.48-8.31-4.88-12.42,4.2,2,7.13,4.66,10.67,7.68Z"/>
    <path class="cls-4" d="M115.67,200.3c-4.74,1.82-9.87.81-14.93,1.37,3.31-5.28,10.99-6.14,14.93-1.37Z"/>
    <path class="cls-10" d="M151.85,179.96c-2.28-1.17-3.33-4.07-5.62-6.59-.32,3.04-3.48,3.86-2.38,6.23-1-.09-1.86.05-2.49-.46,2.84-3.38,3.79-7.08,5.77-11.17l6.1,11.97c-.56.54-1.08.18-1.38.02Z"/>
    <path class="cls-3" d="M51.67,253.17l-5.17-3.5c.1-2.35.11-4.27-.26-6.55l6.79,2.98-1.36,7.08Z"/>
    <path class="cls-2" d="M97.81,184.8c-.61,1.89-.43,3.75-.46,5.93l-.08,5.62c-.01.72-1.56.66-1.91.21-.22-.28-.63-.77-.63-1.51v-10.8s-2.3-.74-2.3-.74c1.78.3,3.84-3.5,5.06-1.25.4.74.55,1.79.31,2.52Z"/>
    <path class="cls-10" d="M43.55,239.66c-4.19,8.95-2.09,21.32-11.33,27.84.08-.94.17-1.74,1.21-2.57l1.28-2.57c2.07-1.96,2.87-3.99,3.52-6.65l1.01-4.15c.6-2.47.93-4.48,1.1-7.09.07-1.11,1.44-2.42,1-3.56.7-.52,1.42-.83,2.22-1.26Z"/>
    <path class="cls-8" d="M26.17,239.28c-1.26-1.15-2.2-2.71-3.3-4.27-.8-3.58-1.51-6.82-3.22-10.64,1.96.2,2.99,1.85,4.05,3.48,1.32,3.52,2.68,6.83,2.46,11.43Z"/>
    <path class="cls-10" d="M352.94,213.29c.05-3.53,4.13-8.66,1.45-9.5-.52-.16-1.41.39-1.87,1.02-4.69-.11-9.36.72-13.6,3.79-.3-.56-.74-.7-1.15-.68,5.63-4.03,12.59-5.44,19.82-4.57l-2.57,6.63-2.07,3.31Z"/>
    <path class="cls-8" d="M43.79,223.2c-3.36,5.76-3.08,10.27-7.09,12.76-.42-5.31,1.67-11.5,7.09-12.76Z"/>
    <path class="cls-8" d="M53.42,269.19c-1.81-.94-2.48-2.23-2.98-3.54-1.43-3.72-3.36-6.66-5.72-10.2,5.85,2.35,8.63,8.05,8.7,13.75Z"/>
    <path class="cls-9" d="M321.69,172.06c-2.13,1.83-3.08,3.38-4.76,5.74l-4.06-8.06,8.82,2.33Z"/>
    <path class="cls-3" d="M66.83,322.13c-1.29.33-2.43.26-3.7-.09l-.07-7.77c1.28-.22,2.4-.19,3.73-.01l.04,7.88Z"/>
    <path class="cls-10" d="M70.57,276.79l-.06.3c-.38-.17-.55.05-.57.31l-.06.93-1.44,8.27-2.2,5.46c-.82-2.41-.37-4.75.31-7.2l2.46-8.95c.29,0,.94-.76,1.17-.57.28.21.44,1.16.38,1.45Z"/>
    <path class="cls-9" d="M324.66,167.92c-2.33.85-4.59,1.18-6.47.09-1.18-.69-.13-2.47.29-3.28.57-1.1,2.7-1.82,3.97-.79,1.16.94,2.01,2.3,2.21,3.98Z"/>
    <path class="cls-8" d="M356.52,186.82c-1.07,2.02-1.29,3.98-.13,5.95-.14.14-.56.27-.67.5l-5.53,1.25c-.6.02-1.27-.1-1.55-.29,1.76-2.3,3.34-3.63,5.25-5.22l2.63-2.19Z"/>
    <circle class="cls-12" cx="64.8" cy="261.79" r="2.63"/>
    <path class="cls-12" d="M66.49,266.23c1.58,1.02.76,2.9-.08,3.66-1.05.95-2.96,1.19-3.85-.02-.67-.91-.59-2.65-.08-3.37.57-.81,2.74-1.09,4.01-.27Z"/>
    <path class="cls-3" d="M104.78,192.08c-2.31-.08-4.7-.84-5.6-3.32l3.93-2.98c2.6,1.36-.6,5.39,1.68,6.3Z"/>
    <path class="cls-10" d="M126.4,177.37c.08-1.31-.26-2.35-.84-3.74l-2.5-6.02c-.45.69-.75.97-.97,1.06-.14.06-.45-.09-.48-.18.39-1.07.51-2.35,1.83-3.47,1.53,4.92,3.13,9.07,6.06,13.08-1.58.33-2.36-.37-3.1-.71Z"/>
    <path class="cls-16" d="M93.3,190.04c-1.1.7-3.35.84-4.39-.15-.7-.66-.5-3.32.38-3.86,1-.56,3.17.43,3.96,1.22.52.52.47,1.73.06,2.8Z"/>
    <path class="cls-10" d="M134.91,252.76l-.86.06c-.61-.14-1.15-.12-1.49.11l-.07-1.01c.64-.92,1.89-.68,3.31-.89-.91-2.26-4.72-2.59-4.85-5.05,2.95,1.4,5.47,3.17,8.44,5.56l-4.47,1.22Z"/>
    <path class="cls-2" d="M148.31,197.98c.7,1.71.6,3.61.36,5.6-1.18.11-2.33-.12-3.03-.69.12-2.05-.22-3.58.29-5.11.63-.12,1.23-.3,1.96-.78.33.3.41.64.42.98Z"/>
    <path class="cls-12" d="M66,257.58c-1.32.47-3.04.35-3.44-.37-.74-1.34-.34-2.68.54-3.44.92-.8,2.45-.61,3.33.26s1.01,3.03-.43,3.55Z"/>
    <path class="cls-1" d="M409.2,177.97c-.01-1.68-1.19-2.7-2.1-4.01.62-.71,1.32-2.39,2.76-2.06,1.17.27,2.23,1.73,2.8,2.6l-3.46,3.47Z"/>
    <path class="cls-8" d="M338.92,208.6c-3.01,2.18-5.78,6.26-8.38,9.12,1.27-3.93,3.72-7.29,7.23-9.8.41-.02.85.12,1.15.68Z"/>
    <path class="cls-12" d="M65.5,272.71c.82.87-.04,4.06-1.15,4.5-1.72.65-2.35-1.74-2.31-2.84.06-1.64,2.31-2.76,3.46-1.65Z"/>
    <path class="cls-8" d="M157.49,248.27l.2-1.3c1.11-.06,2.66.54,3.8-.85-2-.89-3.86-1.84-3.47-3.76l6.02,4.9-6.56,1.01Z"/>
    <path class="cls-12" d="M60.06,262.29c-.45,1.07-1.36,1.1-2.12.96-.8-.15-1.54-.63-1.59-1.92-.05-1.06.26-1.95,1.05-2.3.59-.25,1.77-.33,2.48.27.54.46.72,1.7.19,2.98Z"/>
    <path class="cls-9" d="M31.29,221.44c-.42,2.26-1.81-.06-5,.38-.98.14-1.11-.76-1.04-1.35s.48-1.6,1.41-1.25c.51.19,1.17,1.73,1.55,1.47.68-.87,1.56-1.44,2.32-1.14s.88,1.25.76,1.89Z"/>
    <circle class="cls-12" cx="70.53" cy="254.85" r="2.02"/>
    <circle class="cls-12" cx="58.75" cy="254.79" r="2.02"/>
    <path class="cls-12" d="M66.07,251.47c-1.24.64-2.8.23-3.23-.54-.59-1.05-.11-1.99.37-2.43.84-.78,2.27-.64,2.93,0,.72.7,1.25,2.29-.06,2.97Z"/>
    <path class="cls-2" d="M213.25,157.25c.92-1.41.94-3.07.21-4.58,1.61.93,3.38,1.17,5.09,2.76-2.07.98-3.63,1.71-5.3,1.82Z"/>
    <path class="cls-9" d="M29.31,240.75c-1.16-.57-1.48-2.62-.5-3.49.67-.59,1.72-.33,2.35.21.57.49.79,1.32.41,2.2-.31.73-1.19,1.6-2.26,1.08Z"/>
    <path class="cls-9" d="M59.67,269.11c-.91,1.33-2.93.35-2.97-1.02-.03-.99.28-2.86,2.02-2.54,1.18.22,1.86,2.23.94,3.57Z"/>
    <circle class="cls-9" cx="29.74" cy="234.02" r="1.83"/>
    <path class="cls-10" d="M152.25,188.06c1.5-2.19-2.41-4.47-2.43-7.4l5.14,7.85c-1.39.16-1.94-.33-2.71-.45Z"/>
    <circle class="cls-9" cx="29.7" cy="229.44" r="1.76"/>
    <path class="cls-9" d="M72.57,259.32c-.27,1.19-1.16,2.86-2.16,3.74-1.11-.1-1.33-1.93-1.29-2.7.05-1.1,1.5-2.22,3.45-1.04Z"/>
    <circle class="cls-9" cx="69.74" cy="249.16" r="1.75"/>
    <circle class="cls-9" cx="59.4" cy="249.19" r="1.73"/>
    <circle class="cls-9" cx="64.45" cy="244.87" r="1.79"/>
    <path class="cls-9" d="M63.21,240.81c-.17-.94.22-2.1.48-2.68,1.37.11,2.1.62,2.4,1.11.48.79.08,1.66-.37,2.06-.72.63-2.34.45-2.51-.49Z"/>
    <circle class="cls-9" cx="29.87" cy="225.29" r="1.69"/>
    <path class="cls-2" d="M164.58,201.73l-.04,4.22c-.64.49-2.17.19-2.15-.31l.42-4.45,1.76.54Z"/>
    <path class="cls-10" d="M130.24,196.93c-3.35-.08-6.72-1.19-9.88-2.37,1.32.01,3-.43,4.46.19,4.08,1.74,6.33.15,5.42,2.18Z"/>
    <circle class="cls-9" cx="34.01" cy="229.27" r="1.55"/>
    <path class="cls-1" d="M355.73,193.27c-.49,1.09-2.79,3.06-4.1,2.84-.71-.12-1.47-.63-1.43-1.59l5.53-1.25Z"/>
    <path class="cls-9" d="M59.78,273.33c.22,1.34.11,2.37-.37,3.27-1.33-.6-2.36-2.54-1.92-3.61.33-.82,2.14-.57,2.29.35Z"/>
    <path class="cls-10" d="M62.21,162.91l.35,1.09-3.19,2.65c-1.59,1.32-1.28,7.07-2.47,9.24l-.02-5.84c.69-3.22,2.7-5.38,5.33-7.14Z"/>
    <path class="cls-9" d="M30.52,214.63c-1.25.36-1.55-.81-1.66-1.48-.1-.6.31-1.84,1.48-1.71,1.36.15,1.62,2.78.18,3.19Z"/>
    <path class="cls-9" d="M33.42,223.27c.93-.37,1.6.16,1.78.87.16.63-.26,1.63-.85,1.98-.71.43-1.68-.08-2.02-.85-.24-.55.37-1.72,1.08-2.01Z"/>
    <path class="cls-8" d="M64.09,280.12c-.13,1.91-.04,3.11-.84,4.57-.94-2.17-1.45-4.06-.39-5.01.31-.28,1.28-.41,1.23.44Z"/>
    <path class="cls-9" d="M30.92,244.62c-.42.67-1.62-.02-1.9-.9-.19-.61-.36-1.63.7-1.99.59-.2,1.35.15,1.4.47.07.45.39,1.46-.21,2.42Z"/>
    <path class="cls-9" d="M27.33,225.19c0,1.16-1.47,1.24-2.02.73-.52-.48-.92-1.55-.1-2.42.57-.61,2.11.06,2.12,1.7Z"/>
    <path class="cls-9" d="M33.1,235.28c-.51-.37-.42-1.51-.32-1.99.1-.45.67-1.16,1.63-.89.84.24.74,1.52.46,2.34-.18.52-.95,1.14-1.77.54Z"/>
    <circle class="cls-8" cx="68.39" cy="244.25" r="1.32"/>
    <path class="cls-8" d="M60.28,245.38c-.47.05-.97-.79-.96-1.23s.18-1.58.86-1.76,1.42.68,1.4,1.26c-.03.83-.15,1.61-1.3,1.73Z"/>
    <path class="cls-10" d="M130.98,196.95c.45-2.45-1-4.05-1.13-6.1l3.46,6.44c-1.06.73-1.72.05-2.33-.34Z"/>
    <circle class="cls-8" cx="33.34" cy="220.75" r="1.31"/>
    <path class="cls-2" d="M145.37,197.89l-6.97.02c2.14-.77,4.83-.75,6.97-.02Z"/>
    <path class="cls-2" d="M108.78,87.54c0-.9.01-1.61.45-2.38.82.14.81.79.77,1.49s-.38,1.09-1.22.89Z"/>
    <path class="cls-8" d="M48.43,180.56l-2.31,3.25c.02-1.55.54-3.36,2.31-3.25Z"/>
    <path class="cls-2" d="M109.49,96.4c-.29-.45-.56-1.46-.63-1.96.32-.09.93.01,1.06.37.22.57.03,1.31-.43,1.59Z"/>
    <path class="cls-10" d="M129.9,245.11l.63.55c-.61-.02-1.17.16-2.04-.21.38-.53.86-.47,1.41-.34Z"/>
    <path class="cls-2" d="M69.89,188.6c-.07-.48.12-1,.41-1.34.12.52.04,1.11-.41,1.34Z"/>
    <rect class="cls-3" x="236.17" y="30.07" width=".41" height=".41" transform="translate(47.83 176.01) rotate(-45)"/>
    <path class="cls-1" d="M126.4,177.37c-.08,1.25.87,2.5,1.53,3.74l3.88,7.27-3.84-.93c1.04,1.35,1.33,2.36,1.88,3.4.13,2.06,1.58,3.65,1.13,6.1l-.75-.02c.91-2.02-1.34-.44-5.42-2.18-1.47-.63-3.14-.18-4.46-.19-1.95-.01-3.91-.53-6.19-1.12l4.01-6.98c-1.26-.3-2.02.14-3.1.61l4.86-9.46c-1.5-.12-2.42.78-3.68.35,2.18-3.5,4.18-6.19,5.37-9.47.04.1.34.24.48.18.22-.09.51-.37.97-1.06l2.5,6.02c.58,1.39.92,2.43.84,3.74Z"/>
    <path class="cls-3" d="M235.89,30.94l-.99.25.37-.5c.09-.12.49.15.61.25Z"/>
    <path class="cls-3" d="M134.05,252.81l.86-.06c-.28.08-.46.15-.86.06Z"/>
    <rect class="cls-3" x="257.1" y="69.6" width=".41" height=".41" transform="translate(26 202.39) rotate(-45)"/>
    <path class="cls-2" d="M109.34,83.5c.02-.22.33-.51.48-.64,0,.33-.13.65-.48.64Z"/>
    <rect class="cls-8" x="47.82" y="238.76" width=".41" height=".41" transform="translate(-154.91 103.95) rotate(-45)"/>
    <rect class="cls-3" x="278.03" y="96.34" width=".41" height=".41" transform="translate(13.23 225.02) rotate(-45)"/>
    <polygon class="cls-14" points="206.24 121.53 206.63 121.53 207.01 121.54 206.63 121.55 206.24 121.55 205.86 121.54 206.24 121.53"/>
    <path class="cls-14" d="M296.51,146.89c5.77-10.34,16.71-14.03,22.57-23.41l6.74-6.87c-2.44,6.22-4.57,12.23-8,17.83-2.75,4.5-7.66,7.1-12.32,9.09l-8.99,3.36Z"/>
    <polygon class="cls-14" points="295.77 147.69 296.16 147.69 296.54 147.7 296.16 147.71 295.77 147.71 295.39 147.7 295.77 147.69"/>
    <rect class="cls-14" x="325.69" y="115.52" width=".41" height=".41" transform="translate(13.62 264.34) rotate(-45)"/>
    <path class="cls-14" d="M148.69,125.09l17.04,17.08,4.69,4.29-.21.94-15.11-9.71c-5.24-3.36-10.94-6.32-14.84-11.2-1.49-1.87-2.51-4.5-3.58-6.59l-7.66-14.92,5.98,5.2c4.5,3.92,8,9.22,13.68,14.9Z"/>
    <path class="cls-14" d="M309.13,183.72c.48,1.81-1.83,3.49-3.94,3.85l1.26,4.09c-2.22.47-4.18-.84-4.89-2.51-.76-1.78-.49-5.08,1.15-5.84,2.62,2.6,3.88-.18,6.43.4Z"/>
    <path class="cls-10" d="M98.17,166.15c-2.96-3.43-7.69-1.49-6.66-4.79.71-1.22,2.48.06,3.53.2,1.93.26,3.14.77,3.72,2.88.1.35.94.96.85,1.27-.12.39-1.12.49-1.44.44Z"/>
    <polygon class="cls-3" points="105.67 190.71 106.07 190.71 106.44 190.72 106.07 190.73 105.67 190.73 105.29 190.72 105.67 190.71"/>
    <path class="cls-14" d="M417.87,150.21c.35,1.5-1.4,2.78-2.54,2.87s-2.8-1.7-2.31-3,1.47-1.54,2.35-1.41c.71.11,2.2.23,2.5,1.53Z"/>
  </g>
  <circle class="cls-14" cx="351.34" cy="150.81" r="2.39"/>
  <path class="cls-8" d="M69.89,278.34l.06-.93c.02-.26.19-.49.57-.31-.09.46-.27.88-.63,1.25Z"/>
  <g>
    <path class="cls-17" d="M95.73,355.83l22.79-4.1c1.91,6.45,6.84,9.67,14.77,9.67,6.17,0,9.26-1.64,9.26-4.92,0-1.72-.71-3.06-2.14-4.01-1.43-.96-3.98-1.81-7.65-2.55-14.03-2.69-23.03-6.2-27.01-10.54-3.98-4.34-5.97-9.44-5.97-15.3,0-7.54,2.86-13.81,8.58-18.81,5.72-5,13.95-7.5,24.7-7.5,16.29,0,27.05,6.54,32.29,19.63l-20.33,6.15c-2.11-5.35-6.39-8.03-12.83-8.03-5.35,0-8.03,1.66-8.03,4.98,0,1.48.6,2.64,1.82,3.46,1.21.82,3.56,1.6,7.03,2.34,9.57,2.02,16.37,3.82,20.39,5.37,4.02,1.56,7.38,4.22,10.08,7.99,2.69,3.77,4.04,8.22,4.04,13.34,0,8.09-3.28,14.65-9.84,19.67s-15.18,7.53-25.84,7.53c-19.49,0-31.52-8.12-36.09-24.38Z"/>
    <path class="cls-17" d="M201.43,299v79.98h-24.55v-79.98h24.55Z"/>
    <path class="cls-17" d="M286.57,378.98h-27.22l-11.68-30.59h-7.74v30.59h-24.55v-79.98h41.78c9.22,0,16.38,2.16,21.47,6.47,5.1,4.32,7.65,10.01,7.65,17.08,0,4.61-.94,8.68-2.81,12.22-1.88,3.54-5.66,6.65-11.37,9.35l14.47,34.86ZM239.93,331.28h10.49c3.09,0,5.57-.64,7.44-1.93s2.81-3.18,2.81-5.68c0-5.12-3.14-7.68-9.43-7.68h-11.31v15.29Z"/>
    <path class="cls-17" d="M342.27,378.98l-4.52-15.76h-21.43l-4.8,15.76h-19.93l24.69-79.98h25.96l25.08,79.98h-25.05ZM320.5,345.76h12.94l-6.47-23.2-6.47,23.2Z"/>
  </g>
</svg>